<svg width="1440" height="1024" viewBox="0 0 1440 1024" fill="none" xmlns="http://www.w3.org/2000/svg">
<g clip-path="url(#clip0_3_0)">
<rect width="1440" height="1024" fill="white"/>
<rect width="1440" height="1024" fill="white"/>
<rect y="-1" width="1440" height="48" fill="#ECEEF0"/>
<path d="M13.0957 29.8311V27.5215C13.0957 27.2852 13.2139 27.167 13.4502 27.167H15.7383C15.9746 27.167 16.0928 27.2852 16.0928 27.5215V29.2188C16.0928 29.806 16.3864 30.0996 16.9736 30.0996H18.0264C18.6136 30.0996 18.9072 29.806 18.9072 29.2188V26.2861L13.6973 24.5781C13.2962 24.4492 13.0957 24.1771 13.0957 23.7617V18.5732C13.0957 17.542 13.3678 16.7578 13.9121 16.2207C14.4564 15.6764 15.2406 15.4043 16.2646 15.4043H18.7354C19.7738 15.4043 20.5615 15.6729 21.0986 16.21C21.6357 16.7471 21.9043 17.5348 21.9043 18.5732V20.9043C21.9043 21.1335 21.7861 21.248 21.5498 21.248H19.2617C19.0254 21.248 18.9072 21.1335 18.9072 20.9043V19.1855C18.9072 18.5983 18.6136 18.3047 18.0264 18.3047H16.9736C16.6943 18.3047 16.4759 18.3835 16.3184 18.541C16.168 18.6914 16.0928 18.9062 16.0928 19.1855V22.2148L21.3242 23.9336C21.7109 24.0911 21.9043 24.3633 21.9043 24.75V29.8311C21.9043 30.8695 21.6357 31.6572 21.0986 32.1943C20.5615 32.7314 19.7738 33 18.7354 33H16.2646C15.2406 33 14.4564 32.7314 13.9121 32.1943C13.3678 31.6501 13.0957 30.8623 13.0957 29.8311ZM24.0957 29.8311V20.7646C24.0957 19.7262 24.3678 18.9385 24.9121 18.4014C25.4564 17.8643 26.2477 17.5957 27.2861 17.5957H29.7568C30.7809 17.5957 31.5651 17.8678 32.1094 18.4121C32.6536 18.9492 32.9258 19.7334 32.9258 20.7646V23.1387C32.9258 23.2461 32.8936 23.332 32.8291 23.3965C32.7646 23.4609 32.6787 23.4932 32.5713 23.4932H30.498C30.2689 23.4932 30.1543 23.375 30.1543 23.1387V21.3447C30.1543 20.7575 29.8607 20.4639 29.2734 20.4639H27.8662C27.279 20.4639 26.9854 20.7575 26.9854 21.3447V29.3262C26.9854 29.9134 27.279 30.207 27.8662 30.207H29.2734C29.8607 30.207 30.1543 29.9134 30.1543 29.3262V27.457C30.1543 27.2207 30.2689 27.1025 30.498 27.1025H32.5713C32.6787 27.1025 32.7646 27.1348 32.8291 27.1992C32.8936 27.2637 32.9258 27.3496 32.9258 27.457V29.8311C32.9258 30.8623 32.6536 31.6501 32.1094 32.1943C31.5651 32.7314 30.7809 33 29.7568 33H27.2861C26.2477 33 25.4564 32.7314 24.9121 32.1943C24.3678 31.6572 24.0957 30.8695 24.0957 29.8311ZM35.1172 32.6455V17.9502C35.1172 17.8428 35.1458 17.7568 35.2031 17.6924C35.2676 17.6279 35.3499 17.5957 35.4502 17.5957H43.5498C43.7861 17.5957 43.9043 17.7139 43.9043 17.9502V20.1523C43.9043 20.403 43.7861 20.5283 43.5498 20.5283H38.1143V23.9121H42.25C42.4863 23.9121 42.6045 24.0374 42.6045 24.2881V26.4688C42.6045 26.7194 42.4863 26.8447 42.25 26.8447H38.1143V30.0996H43.5498C43.6859 30.0996 43.779 30.1247 43.8291 30.1748C43.8792 30.2249 43.9043 30.3145 43.9043 30.4434V32.6455C43.9043 32.8818 43.7861 33 43.5498 33H35.4502C35.3499 33 35.2676 32.9678 35.2031 32.9033C35.1458 32.8389 35.1172 32.7529 35.1172 32.6455ZM46.0957 32.6455V17.9502C46.0957 17.8428 46.1279 17.7568 46.1924 17.6924C46.2568 17.6279 46.3428 17.5957 46.4502 17.5957H51.7354C52.7738 17.5957 53.5615 17.8643 54.0986 18.4014C54.6357 18.9385 54.9043 19.7262 54.9043 20.7646V25.083C54.9043 26.1071 54.6357 26.8913 54.0986 27.4355C53.5615 27.9727 52.7738 28.2448 51.7354 28.252L48.9639 28.2734V32.667C48.9639 32.9033 48.8457 33.0215 48.6094 33.0215L46.4502 33C46.3428 33 46.2568 32.9678 46.1924 32.9033C46.1279 32.8389 46.0957 32.7529 46.0957 32.6455ZM48.9639 25.4268L51.1553 25.4053C51.7425 25.4053 52.0361 25.1152 52.0361 24.5352V21.3232C52.0361 20.736 51.7425 20.4424 51.1553 20.4424L48.9639 20.4639V25.4268ZM56.4404 20.1523C56.4404 20.2598 56.4727 20.3457 56.5371 20.4102C56.6016 20.4746 56.6875 20.5068 56.7949 20.5068H59.3516V32.6455C59.3516 32.8818 59.4697 33 59.7061 33H61.9941C62.2233 33 62.3379 32.8818 62.3379 32.6455V20.5068H64.8945C65.1309 20.5068 65.249 20.3887 65.249 20.1523V17.9502C65.249 17.7139 65.1309 17.5957 64.8945 17.5957H56.7949C56.6875 17.5957 56.6016 17.6279 56.5371 17.6924C56.4727 17.7568 56.4404 17.8428 56.4404 17.9502V20.1523ZM66.7852 32.6455C66.7852 32.8818 66.9033 33 67.1396 33H69.4277C69.5352 33 69.6211 32.9678 69.6855 32.9033C69.75 32.8389 69.7822 32.7529 69.7822 32.6455V17.9502C69.7822 17.8428 69.75 17.7568 69.6855 17.6924C69.6211 17.6279 69.5352 17.5957 69.4277 17.5957H67.1396C66.9033 17.5957 66.7852 17.7139 66.7852 17.9502V32.6455ZM71.3506 18.0791C71.3434 18.029 71.3398 17.9788 71.3398 17.9287C71.3398 17.7067 71.4759 17.5957 71.748 17.5957H73.7568C74.0146 17.5957 74.1758 17.7282 74.2402 17.9932L76.4209 27.9404L78.6123 17.9932C78.6768 17.7282 78.8379 17.5957 79.0957 17.5957H81.1045C81.3766 17.5957 81.5127 17.7067 81.5127 17.9287C81.5127 17.9717 81.5091 18.0218 81.502 18.0791L78 32.6025C77.9355 32.8675 77.7744 33 77.5166 33H75.3145C75.0566 33 74.8955 32.8675 74.8311 32.6025L71.3506 18.0791ZM83.0703 32.6455V17.9502C83.0703 17.8428 83.099 17.7568 83.1562 17.6924C83.2207 17.6279 83.3031 17.5957 83.4033 17.5957H91.5029C91.7393 17.5957 91.8574 17.7139 91.8574 17.9502V20.1523C91.8574 20.403 91.7393 20.5283 91.5029 20.5283H86.0674V23.9121H90.2031C90.4395 23.9121 90.5576 24.0374 90.5576 24.2881V26.4688C90.5576 26.7194 90.4395 26.8447 90.2031 26.8447H86.0674V30.0996H91.5029C91.639 30.0996 91.7321 30.1247 91.7822 30.1748C91.8324 30.2249 91.8574 30.3145 91.8574 30.4434V32.6455C91.8574 32.8818 91.7393 33 91.5029 33H83.4033C83.3031 33 83.2207 32.9678 83.1562 32.9033C83.099 32.8389 83.0703 32.7529 83.0703 32.6455ZM94.0488 32.5596V30.54C94.0488 30.2464 94.1956 30.0996 94.4893 30.0996H96.498C96.7917 30.0996 96.9385 30.2464 96.9385 30.54V32.5596C96.9385 32.8532 96.7917 33 96.498 33H94.4893C94.1956 33 94.0488 32.8532 94.0488 32.5596Z" fill="#152935"/>
<path d="M104.86 32V18.04H113.18V19.52H106.54V24.2H112.6V25.68H106.54V32H104.86ZM119.264 32.24C118.571 32.24 117.937 32.1133 117.364 31.86C116.791 31.6067 116.297 31.2467 115.884 30.78C115.484 30.3 115.171 29.7333 114.944 29.08C114.717 28.4133 114.604 27.6667 114.604 26.84C114.604 26.0267 114.717 25.2867 114.944 24.62C115.171 23.9533 115.484 23.3867 115.884 22.92C116.297 22.44 116.791 22.0733 117.364 21.82C117.937 21.5667 118.571 21.44 119.264 21.44C119.957 21.44 120.584 21.5667 121.144 21.82C121.717 22.0733 122.211 22.44 122.624 22.92C123.037 23.3867 123.357 23.9533 123.584 24.62C123.811 25.2867 123.924 26.0267 123.924 26.84C123.924 27.6667 123.811 28.4133 123.584 29.08C123.357 29.7333 123.037 30.3 122.624 30.78C122.211 31.2467 121.717 31.6067 121.144 31.86C120.584 32.1133 119.957 32.24 119.264 32.24ZM119.264 30.82C120.131 30.82 120.837 30.5533 121.384 30.02C121.931 29.4867 122.204 28.6733 122.204 27.58V26.1C122.204 25.0067 121.931 24.1933 121.384 23.66C120.837 23.1267 120.131 22.86 119.264 22.86C118.397 22.86 117.691 23.1267 117.144 23.66C116.597 24.1933 116.324 25.0067 116.324 26.1V27.58C116.324 28.6733 116.597 29.4867 117.144 30.02C117.691 30.5533 118.397 30.82 119.264 30.82ZM126.555 32V21.68H128.155V23.58H128.255C128.442 23.0867 128.775 22.6467 129.255 22.26C129.735 21.8733 130.395 21.68 131.235 21.68H131.855V23.28H130.915C130.049 23.28 129.369 23.4467 128.875 23.78C128.395 24.1 128.155 24.5067 128.155 25V32H126.555ZM142.13 33.14C142.13 34.2067 141.71 34.9867 140.87 35.48C140.044 35.9867 138.797 36.24 137.13 36.24C135.517 36.24 134.357 36.02 133.65 35.58C132.944 35.14 132.59 34.5133 132.59 33.7C132.59 33.14 132.737 32.7 133.03 32.38C133.324 32.0733 133.724 31.8467 134.23 31.7V31.48C133.617 31.1867 133.31 30.7067 133.31 30.04C133.31 29.52 133.477 29.1267 133.81 28.86C134.144 28.58 134.57 28.3733 135.09 28.24V28.16C134.477 27.8667 133.997 27.4467 133.65 26.9C133.317 26.3533 133.15 25.72 133.15 25C133.15 24.48 133.244 24 133.43 23.56C133.617 23.12 133.877 22.7467 134.21 22.44C134.557 22.12 134.964 21.8733 135.43 21.7C135.91 21.5267 136.444 21.44 137.03 21.44C137.764 21.44 138.417 21.5733 138.99 21.84V21.66C138.99 21.26 139.084 20.9333 139.27 20.68C139.457 20.4133 139.764 20.28 140.19 20.28H141.73V21.68H139.77V22.34C140.144 22.66 140.43 23.0467 140.63 23.5C140.844 23.94 140.95 24.44 140.95 25C140.95 25.52 140.857 26 140.67 26.44C140.484 26.88 140.217 27.26 139.87 27.58C139.537 27.8867 139.13 28.1267 138.65 28.3C138.17 28.4733 137.637 28.56 137.05 28.56C136.717 28.56 136.384 28.5267 136.05 28.46C135.704 28.5533 135.39 28.6933 135.11 28.88C134.83 29.0533 134.69 29.3 134.69 29.62C134.69 29.9267 134.837 30.1333 135.13 30.24C135.424 30.3467 135.804 30.4 136.27 30.4H138.47C139.75 30.4 140.677 30.6467 141.25 31.14C141.837 31.62 142.13 32.2867 142.13 33.14ZM140.63 33.26C140.63 32.8467 140.47 32.5133 140.15 32.26C139.844 32.02 139.29 31.9 138.49 31.9H135.05C134.41 32.1933 134.09 32.66 134.09 33.3C134.09 33.7533 134.257 34.14 134.59 34.46C134.937 34.78 135.517 34.94 136.33 34.94H137.81C138.704 34.94 139.397 34.8 139.89 34.52C140.384 34.24 140.63 33.82 140.63 33.26ZM137.05 27.28C137.73 27.28 138.27 27.12 138.67 26.8C139.07 26.4667 139.27 25.96 139.27 25.28V24.72C139.27 24.04 139.07 23.54 138.67 23.22C138.27 22.8867 137.73 22.72 137.05 22.72C136.37 22.72 135.83 22.8867 135.43 23.22C135.03 23.54 134.83 24.04 134.83 24.72V25.28C134.83 25.96 135.03 26.4667 135.43 26.8C135.83 27.12 136.37 27.28 137.05 27.28ZM144.797 19.26C144.45 19.26 144.197 19.18 144.037 19.02C143.89 18.8467 143.817 18.6267 143.817 18.36V18.1C143.817 17.8333 143.89 17.62 144.037 17.46C144.197 17.2867 144.45 17.2 144.797 17.2C145.144 17.2 145.39 17.2867 145.537 17.46C145.697 17.62 145.777 17.8333 145.777 18.1V18.36C145.777 18.6267 145.697 18.8467 145.537 19.02C145.39 19.18 145.144 19.26 144.797 19.26ZM143.997 21.68H145.597V32H143.997V21.68ZM151.277 32L147.657 21.68H149.257L151.057 26.8L152.177 30.32H152.277L153.397 26.8L155.237 21.68H156.777L153.137 32H151.277ZM166.165 32C165.565 32 165.132 31.84 164.865 31.52C164.612 31.2 164.452 30.8 164.385 30.32H164.285C164.058 30.96 163.685 31.44 163.165 31.76C162.645 32.08 162.025 32.24 161.305 32.24C160.212 32.24 159.358 31.96 158.745 31.4C158.145 30.84 157.845 30.08 157.845 29.12C157.845 28.1467 158.198 27.4 158.905 26.88C159.625 26.36 160.738 26.1 162.245 26.1H164.285V25.08C164.285 24.3467 164.085 23.7867 163.685 23.4C163.285 23.0133 162.672 22.82 161.845 22.82C161.218 22.82 160.692 22.96 160.265 23.24C159.852 23.52 159.505 23.8933 159.225 24.36L158.265 23.46C158.545 22.9 158.992 22.4267 159.605 22.04C160.218 21.64 160.992 21.44 161.925 21.44C163.178 21.44 164.152 21.7467 164.845 22.36C165.538 22.9733 165.885 23.8267 165.885 24.92V30.6H167.065V32H166.165ZM161.565 30.88C161.965 30.88 162.332 30.8333 162.665 30.74C162.998 30.6467 163.285 30.5133 163.525 30.34C163.765 30.1667 163.952 29.9667 164.085 29.74C164.218 29.5133 164.285 29.2667 164.285 29V27.3H162.165C161.245 27.3 160.572 27.4333 160.145 27.7C159.732 27.9667 159.525 28.3533 159.525 28.86V29.28C159.525 29.7867 159.705 30.18 160.065 30.46C160.438 30.74 160.938 30.88 161.565 30.88ZM174.235 32V18.04H182.755V19.52H175.915V24.2H182.355V25.68H175.915V30.52H182.755V32H174.235ZM185.735 32V21.68H187.335V23.36H187.415C187.668 22.7733 188.022 22.3067 188.475 21.96C188.942 21.6133 189.562 21.44 190.335 21.44C191.402 21.44 192.242 21.7867 192.855 22.48C193.482 23.16 193.795 24.1267 193.795 25.38V32H192.195V25.66C192.195 23.8067 191.415 22.88 189.855 22.88C189.535 22.88 189.222 22.92 188.915 23C188.622 23.08 188.355 23.2 188.115 23.36C187.875 23.52 187.682 23.7267 187.535 23.98C187.402 24.22 187.335 24.5067 187.335 24.84V32H185.735ZM199.382 32C198.822 32 198.396 31.8467 198.102 31.54C197.822 31.22 197.682 30.8067 197.682 30.3V23.08H195.982V21.68H196.942C197.289 21.68 197.522 21.6133 197.642 21.48C197.776 21.3333 197.842 21.0867 197.842 20.74V18.82H199.282V21.68H201.542V23.08H199.282V30.6H201.382V32H199.382ZM207.916 32.24C207.209 32.24 206.569 32.1133 205.996 31.86C205.436 31.6067 204.949 31.2467 204.536 30.78C204.136 30.3 203.823 29.7333 203.596 29.08C203.383 28.4133 203.276 27.6667 203.276 26.84C203.276 26.0267 203.383 25.2867 203.596 24.62C203.823 23.9533 204.136 23.3867 204.536 22.92C204.949 22.44 205.436 22.0733 205.996 21.82C206.569 21.5667 207.209 21.44 207.916 21.44C208.609 21.44 209.229 21.5667 209.776 21.82C210.323 22.0733 210.789 22.4267 211.176 22.88C211.563 23.32 211.856 23.8467 212.056 24.46C212.269 25.0733 212.376 25.7467 212.376 26.48V27.24H204.956V27.72C204.956 28.16 205.023 28.5733 205.156 28.96C205.303 29.3333 205.503 29.66 205.756 29.94C206.023 30.22 206.343 30.44 206.716 30.6C207.103 30.76 207.536 30.84 208.016 30.84C208.669 30.84 209.236 30.6867 209.716 30.38C210.209 30.0733 210.589 29.6333 210.856 29.06L211.996 29.88C211.663 30.5867 211.143 31.16 210.436 31.6C209.729 32.0267 208.889 32.24 207.916 32.24ZM207.916 22.78C207.476 22.78 207.076 22.86 206.716 23.02C206.356 23.1667 206.043 23.38 205.776 23.66C205.523 23.94 205.323 24.2733 205.176 24.66C205.029 25.0333 204.956 25.4467 204.956 25.9V26.04H210.656V25.82C210.656 24.9 210.403 24.1667 209.896 23.62C209.403 23.06 208.743 22.78 207.916 22.78ZM215.013 32V21.68H216.613V23.58H216.713C216.899 23.0867 217.233 22.6467 217.713 22.26C218.193 21.8733 218.853 21.68 219.693 21.68H220.313V23.28H219.373C218.506 23.28 217.826 23.4467 217.333 23.78C216.853 24.1 216.613 24.5067 216.613 25V32H215.013ZM222.356 21.68H223.956V23.36H224.036C224.303 22.7067 224.69 22.2267 225.196 21.92C225.716 21.6 226.336 21.44 227.056 21.44C227.696 21.44 228.276 21.5667 228.796 21.82C229.316 22.0733 229.756 22.4333 230.116 22.9C230.49 23.3667 230.77 23.9333 230.956 24.6C231.156 25.2667 231.256 26.0133 231.256 26.84C231.256 27.6667 231.156 28.4133 230.956 29.08C230.77 29.7467 230.49 30.3133 230.116 30.78C229.756 31.2467 229.316 31.6067 228.796 31.86C228.276 32.1133 227.696 32.24 227.056 32.24C225.656 32.24 224.65 31.6 224.036 30.32H223.956V36H222.356V21.68ZM226.616 30.8C227.523 30.8 228.236 30.52 228.756 29.96C229.276 29.3867 229.536 28.64 229.536 27.72V25.96C229.536 25.04 229.276 24.3 228.756 23.74C228.236 23.1667 227.523 22.88 226.616 22.88C226.256 22.88 225.91 22.9333 225.576 23.04C225.256 23.1333 224.976 23.2667 224.736 23.44C224.496 23.6133 224.303 23.8267 224.156 24.08C224.023 24.32 223.956 24.58 223.956 24.86V28.7C223.956 29.0333 224.023 29.3333 224.156 29.6C224.303 29.8533 224.496 30.0733 224.736 30.26C224.976 30.4333 225.256 30.5667 225.576 30.66C225.91 30.7533 226.256 30.8 226.616 30.8ZM233.958 32V21.68H235.558V23.58H235.658C235.844 23.0867 236.178 22.6467 236.658 22.26C237.138 21.8733 237.798 21.68 238.638 21.68H239.258V23.28H238.318C237.451 23.28 236.771 23.4467 236.278 23.78C235.798 24.1 235.558 24.5067 235.558 25V32H233.958ZM242.102 19.26C241.755 19.26 241.502 19.18 241.342 19.02C241.195 18.8467 241.122 18.6267 241.122 18.36V18.1C241.122 17.8333 241.195 17.62 241.342 17.46C241.502 17.2867 241.755 17.2 242.102 17.2C242.448 17.2 242.695 17.2867 242.842 17.46C243.002 17.62 243.082 17.8333 243.082 18.1V18.36C243.082 18.6267 243.002 18.8467 242.842 19.02C242.695 19.18 242.448 19.26 242.102 19.26ZM241.302 21.68H242.902V32H241.302V21.68ZM249.402 32.24C248.442 32.24 247.635 32.06 246.982 31.7C246.342 31.3267 245.788 30.8333 245.322 30.22L246.462 29.3C246.862 29.8067 247.308 30.2 247.802 30.48C248.295 30.7467 248.868 30.88 249.522 30.88C250.202 30.88 250.728 30.7333 251.102 30.44C251.488 30.1467 251.682 29.7333 251.682 29.2C251.682 28.8 251.548 28.46 251.282 28.18C251.028 27.8867 250.562 27.6867 249.882 27.58L249.062 27.46C248.582 27.3933 248.142 27.2933 247.742 27.16C247.342 27.0133 246.988 26.8267 246.682 26.6C246.388 26.36 246.155 26.0667 245.982 25.72C245.822 25.3733 245.742 24.96 245.742 24.48C245.742 23.9733 245.835 23.5333 246.022 23.16C246.208 22.7733 246.462 22.4533 246.782 22.2C247.115 21.9467 247.508 21.76 247.962 21.64C248.415 21.5067 248.902 21.44 249.422 21.44C250.262 21.44 250.962 21.5867 251.522 21.88C252.095 22.1733 252.595 22.58 253.022 23.1L251.962 24.06C251.735 23.74 251.402 23.4533 250.962 23.2C250.522 22.9333 249.968 22.8 249.302 22.8C248.635 22.8 248.128 22.9467 247.782 23.24C247.448 23.52 247.282 23.9067 247.282 24.4C247.282 24.9067 247.448 25.2733 247.782 25.5C248.128 25.7267 248.622 25.8933 249.262 26L250.062 26.12C251.208 26.2933 252.022 26.6267 252.502 27.12C252.982 27.6 253.222 28.2333 253.222 29.02C253.222 30.02 252.882 30.8067 252.202 31.38C251.522 31.9533 250.588 32.24 249.402 32.24ZM259.928 32.24C259.221 32.24 258.581 32.1133 258.008 31.86C257.448 31.6067 256.961 31.2467 256.548 30.78C256.148 30.3 255.834 29.7333 255.608 29.08C255.394 28.4133 255.288 27.6667 255.288 26.84C255.288 26.0267 255.394 25.2867 255.608 24.62C255.834 23.9533 256.148 23.3867 256.548 22.92C256.961 22.44 257.448 22.0733 258.008 21.82C258.581 21.5667 259.221 21.44 259.928 21.44C260.621 21.44 261.241 21.5667 261.788 21.82C262.334 22.0733 262.801 22.4267 263.188 22.88C263.574 23.32 263.868 23.8467 264.068 24.46C264.281 25.0733 264.388 25.7467 264.388 26.48V27.24H256.968V27.72C256.968 28.16 257.034 28.5733 257.168 28.96C257.314 29.3333 257.514 29.66 257.768 29.94C258.034 30.22 258.354 30.44 258.728 30.6C259.114 30.76 259.548 30.84 260.028 30.84C260.681 30.84 261.248 30.6867 261.728 30.38C262.221 30.0733 262.601 29.6333 262.868 29.06L264.008 29.88C263.674 30.5867 263.154 31.16 262.448 31.6C261.741 32.0267 260.901 32.24 259.928 32.24ZM259.928 22.78C259.488 22.78 259.088 22.86 258.728 23.02C258.368 23.1667 258.054 23.38 257.788 23.66C257.534 23.94 257.334 24.2733 257.188 24.66C257.041 25.0333 256.968 25.4467 256.968 25.9V26.04H262.668V25.82C262.668 24.9 262.414 24.1667 261.908 23.62C261.414 23.06 260.754 22.78 259.928 22.78Z" fill="#152935"/>
<g filter="url(#filter0_d_3_0)">
<rect x="515" y="232" width="410" height="560" fill="white"/>
<rect x="515" y="705.239" width="410" height="86.7606" fill="#F4F7FB"/>
<path fill-rule="evenodd" clip-rule="evenodd" d="M901 768H831V728H901V768Z" fill="#3D70B2"/>
<path d="M848.148 752V742.228H849.996V750.362H853.846V752H848.148ZM858.098 752.168C857.575 752.168 857.104 752.079 856.684 751.902C856.273 751.725 855.919 751.468 855.62 751.132C855.331 750.796 855.107 750.395 854.948 749.928C854.789 749.452 854.71 748.92 854.71 748.332C854.71 747.744 854.789 747.217 854.948 746.75C855.107 746.283 855.331 745.887 855.62 745.56C855.919 745.224 856.273 744.967 856.684 744.79C857.104 744.613 857.575 744.524 858.098 744.524C858.621 744.524 859.092 744.613 859.512 744.79C859.932 744.967 860.287 745.224 860.576 745.56C860.875 745.887 861.103 746.283 861.262 746.75C861.421 747.217 861.5 747.744 861.5 748.332C861.5 748.92 861.421 749.452 861.262 749.928C861.103 750.395 860.875 750.796 860.576 751.132C860.287 751.468 859.932 751.725 859.512 751.902C859.092 752.079 858.621 752.168 858.098 752.168ZM858.098 750.726C858.574 750.726 858.947 750.581 859.218 750.292C859.489 750.003 859.624 749.578 859.624 749.018V747.66C859.624 747.109 859.489 746.689 859.218 746.4C858.947 746.111 858.574 745.966 858.098 745.966C857.631 745.966 857.263 746.111 856.992 746.4C856.721 746.689 856.586 747.109 856.586 747.66V749.018C856.586 749.578 856.721 750.003 856.992 750.292C857.263 750.581 857.631 750.726 858.098 750.726ZM869.683 752.616C869.683 752.999 869.613 753.335 869.473 753.624C869.342 753.923 869.123 754.17 868.815 754.366C868.507 754.562 868.11 754.711 867.625 754.814C867.139 754.917 866.547 754.968 865.847 754.968C865.231 754.968 864.708 754.926 864.279 754.842C863.849 754.767 863.495 754.655 863.215 754.506C862.944 754.366 862.748 754.189 862.627 753.974C862.505 753.759 862.445 753.517 862.445 753.246C862.445 752.835 862.557 752.513 862.781 752.28C863.014 752.056 863.336 751.911 863.747 751.846V751.692C863.448 751.617 863.215 751.473 863.047 751.258C862.888 751.034 862.809 750.773 862.809 750.474C862.809 750.287 862.846 750.124 862.921 749.984C862.995 749.835 863.093 749.709 863.215 749.606C863.345 749.503 863.49 749.419 863.649 749.354C863.807 749.279 863.975 749.223 864.153 749.186V749.13C863.705 748.925 863.369 748.64 863.145 748.276C862.93 747.912 862.823 747.487 862.823 747.002C862.823 746.255 863.079 745.658 863.593 745.21C864.106 744.753 864.857 744.524 865.847 744.524C866.071 744.524 866.29 744.538 866.505 744.566C866.729 744.594 866.934 744.641 867.121 744.706V744.468C867.121 743.759 867.466 743.404 868.157 743.404H869.291V744.776H867.737V744.972C868.119 745.187 868.404 745.467 868.591 745.812C868.777 746.157 868.871 746.554 868.871 747.002C868.871 747.739 868.614 748.332 868.101 748.78C867.597 749.228 866.845 749.452 865.847 749.452C865.417 749.452 865.044 749.41 864.727 749.326C864.587 749.391 864.465 749.48 864.363 749.592C864.26 749.695 864.209 749.825 864.209 749.984C864.209 750.348 864.526 750.53 865.161 750.53H867.121C868.017 750.53 868.665 750.717 869.067 751.09C869.477 751.454 869.683 751.963 869.683 752.616ZM868.003 752.826C868.003 752.593 867.909 752.411 867.723 752.28C867.536 752.149 867.214 752.084 866.757 752.084H864.265C864.013 752.271 863.887 752.523 863.887 752.84C863.887 753.12 864.003 753.339 864.237 753.498C864.47 753.657 864.867 753.736 865.427 753.736H866.323C866.911 753.736 867.335 753.661 867.597 753.512C867.867 753.363 868.003 753.134 868.003 752.826ZM865.847 748.234C866.724 748.234 867.163 747.861 867.163 747.114V746.876C867.163 746.129 866.724 745.756 865.847 745.756C864.969 745.756 864.531 746.129 864.531 746.876V747.114C864.531 747.861 864.969 748.234 865.847 748.234ZM871.614 743.628C871.24 743.628 870.97 743.544 870.802 743.376C870.643 743.208 870.564 742.993 870.564 742.732V742.452C870.564 742.191 870.643 741.976 870.802 741.808C870.97 741.64 871.24 741.556 871.614 741.556C871.978 741.556 872.244 741.64 872.412 741.808C872.58 741.976 872.664 742.191 872.664 742.452V742.732C872.664 742.993 872.58 743.208 872.412 743.376C872.244 743.544 871.978 743.628 871.614 743.628ZM870.718 744.692H872.51V752H870.718V744.692ZM874.587 752V744.692H876.379V745.91H876.449C876.598 745.518 876.831 745.191 877.149 744.93C877.475 744.659 877.923 744.524 878.493 744.524C879.249 744.524 879.827 744.771 880.229 745.266C880.63 745.761 880.831 746.465 880.831 747.38V752H879.039V747.562C879.039 747.039 878.945 746.647 878.759 746.386C878.572 746.125 878.264 745.994 877.835 745.994C877.648 745.994 877.466 746.022 877.289 746.078C877.121 746.125 876.967 746.199 876.827 746.302C876.696 746.395 876.589 746.517 876.505 746.666C876.421 746.806 876.379 746.974 876.379 747.17V752H874.587Z" fill="white"/>
<path d="M537.488 355V343.832H541.936C542.939 343.832 543.707 344.12 544.24 344.696C544.784 345.261 545.056 346.04 545.056 347.032C545.056 348.024 544.784 348.808 544.24 349.384C543.707 349.949 542.939 350.232 541.936 350.232H538.832V355H537.488ZM538.832 349.048H541.936C542.469 349.048 542.88 348.909 543.168 348.632C543.467 348.355 543.616 347.96 543.616 347.448V346.616C543.616 346.104 543.467 345.709 543.168 345.432C542.88 345.155 542.469 345.016 541.936 345.016H538.832V349.048ZM548.423 355C547.975 355 547.634 354.877 547.399 354.632C547.175 354.376 547.063 354.056 547.063 353.672V343.16H548.343V353.88H549.559V355H548.423ZM554.527 355.192C553.961 355.192 553.449 355.091 552.991 354.888C552.543 354.685 552.153 354.397 551.823 354.024C551.503 353.64 551.252 353.187 551.071 352.664C550.9 352.131 550.815 351.533 550.815 350.872C550.815 350.221 550.9 349.629 551.071 349.096C551.252 348.563 551.503 348.109 551.823 347.736C552.153 347.352 552.543 347.059 552.991 346.856C553.449 346.653 553.961 346.552 554.527 346.552C555.081 346.552 555.577 346.653 556.015 346.856C556.452 347.059 556.825 347.341 557.135 347.704C557.444 348.056 557.679 348.477 557.839 348.968C558.009 349.459 558.095 349.997 558.095 350.584V351.192H552.159V351.576C552.159 351.928 552.212 352.259 552.319 352.568C552.436 352.867 552.596 353.128 552.799 353.352C553.012 353.576 553.268 353.752 553.567 353.88C553.876 354.008 554.223 354.072 554.607 354.072C555.129 354.072 555.583 353.949 555.967 353.704C556.361 353.459 556.665 353.107 556.879 352.648L557.791 353.304C557.524 353.869 557.108 354.328 556.543 354.68C555.977 355.021 555.305 355.192 554.527 355.192ZM554.527 347.624C554.175 347.624 553.855 347.688 553.567 347.816C553.279 347.933 553.028 348.104 552.815 348.328C552.612 348.552 552.452 348.819 552.335 349.128C552.217 349.427 552.159 349.757 552.159 350.12V350.232H556.719V350.056C556.719 349.32 556.516 348.733 556.111 348.296C555.716 347.848 555.188 347.624 554.527 347.624ZM566.204 355C565.724 355 565.377 354.872 565.164 354.616C564.961 354.36 564.833 354.04 564.78 353.656H564.7C564.518 354.168 564.22 354.552 563.804 354.808C563.388 355.064 562.892 355.192 562.316 355.192C561.441 355.192 560.758 354.968 560.268 354.52C559.788 354.072 559.548 353.464 559.548 352.696C559.548 351.917 559.83 351.32 560.396 350.904C560.972 350.488 561.862 350.28 563.068 350.28H564.7V349.464C564.7 348.877 564.54 348.429 564.22 348.12C563.9 347.811 563.409 347.656 562.748 347.656C562.246 347.656 561.825 347.768 561.484 347.992C561.153 348.216 560.876 348.515 560.652 348.888L559.884 348.168C560.108 347.72 560.465 347.341 560.956 347.032C561.446 346.712 562.065 346.552 562.812 346.552C563.814 346.552 564.593 346.797 565.148 347.288C565.702 347.779 565.98 348.461 565.98 349.336V353.88H566.924V355H566.204ZM562.524 354.104C562.844 354.104 563.137 354.067 563.404 353.992C563.67 353.917 563.9 353.811 564.092 353.672C564.284 353.533 564.433 353.373 564.54 353.192C564.646 353.011 564.7 352.813 564.7 352.6V351.24H563.004C562.268 351.24 561.729 351.347 561.388 351.56C561.057 351.773 560.892 352.083 560.892 352.488V352.824C560.892 353.229 561.036 353.544 561.324 353.768C561.622 353.992 562.022 354.104 562.524 354.104ZM571.231 355.192C570.463 355.192 569.817 355.048 569.295 354.76C568.783 354.461 568.34 354.067 567.967 353.576L568.879 352.84C569.199 353.245 569.556 353.56 569.951 353.784C570.345 353.997 570.804 354.104 571.327 354.104C571.871 354.104 572.292 353.987 572.591 353.752C572.9 353.517 573.055 353.187 573.055 352.76C573.055 352.44 572.948 352.168 572.735 351.944C572.532 351.709 572.159 351.549 571.615 351.464L570.959 351.368C570.575 351.315 570.223 351.235 569.903 351.128C569.583 351.011 569.3 350.861 569.055 350.68C568.82 350.488 568.633 350.253 568.495 349.976C568.367 349.699 568.303 349.368 568.303 348.984C568.303 348.579 568.377 348.227 568.527 347.928C568.676 347.619 568.879 347.363 569.135 347.16C569.401 346.957 569.716 346.808 570.079 346.712C570.441 346.605 570.831 346.552 571.247 346.552C571.919 346.552 572.479 346.669 572.927 346.904C573.385 347.139 573.785 347.464 574.127 347.88L573.279 348.648C573.097 348.392 572.831 348.163 572.479 347.96C572.127 347.747 571.684 347.64 571.151 347.64C570.617 347.64 570.212 347.757 569.935 347.992C569.668 348.216 569.535 348.525 569.535 348.92C569.535 349.325 569.668 349.619 569.935 349.8C570.212 349.981 570.607 350.115 571.119 350.2L571.759 350.296C572.676 350.435 573.327 350.701 573.711 351.096C574.095 351.48 574.287 351.987 574.287 352.616C574.287 353.416 574.015 354.045 573.471 354.504C572.927 354.963 572.18 355.192 571.231 355.192ZM579.652 355.192C579.086 355.192 578.574 355.091 578.116 354.888C577.668 354.685 577.278 354.397 576.948 354.024C576.628 353.64 576.377 353.187 576.196 352.664C576.025 352.131 575.94 351.533 575.94 350.872C575.94 350.221 576.025 349.629 576.196 349.096C576.377 348.563 576.628 348.109 576.948 347.736C577.278 347.352 577.668 347.059 578.116 346.856C578.574 346.653 579.086 346.552 579.652 346.552C580.206 346.552 580.702 346.653 581.14 346.856C581.577 347.059 581.95 347.341 582.26 347.704C582.569 348.056 582.804 348.477 582.964 348.968C583.134 349.459 583.22 349.997 583.22 350.584V351.192H577.284V351.576C577.284 351.928 577.337 352.259 577.444 352.568C577.561 352.867 577.721 353.128 577.924 353.352C578.137 353.576 578.393 353.752 578.692 353.88C579.001 354.008 579.348 354.072 579.732 354.072C580.254 354.072 580.708 353.949 581.092 353.704C581.486 353.459 581.79 353.107 582.004 352.648L582.916 353.304C582.649 353.869 582.233 354.328 581.668 354.68C581.102 355.021 580.43 355.192 579.652 355.192ZM579.652 347.624C579.3 347.624 578.98 347.688 578.692 347.816C578.404 347.933 578.153 348.104 577.94 348.328C577.737 348.552 577.577 348.819 577.46 349.128C577.342 349.427 577.284 349.757 577.284 350.12V350.232H581.844V350.056C581.844 349.32 581.641 348.733 581.236 348.296C580.841 347.848 580.313 347.624 579.652 347.624ZM592.214 355.192C591.649 355.192 591.137 355.091 590.678 354.888C590.23 354.685 589.841 354.397 589.51 354.024C589.19 353.64 588.939 353.187 588.758 352.664C588.587 352.131 588.502 351.533 588.502 350.872C588.502 350.221 588.587 349.629 588.758 349.096C588.939 348.563 589.19 348.109 589.51 347.736C589.841 347.352 590.23 347.059 590.678 346.856C591.137 346.653 591.649 346.552 592.214 346.552C592.769 346.552 593.265 346.653 593.702 346.856C594.139 347.059 594.513 347.341 594.822 347.704C595.131 348.056 595.366 348.477 595.526 348.968C595.697 349.459 595.782 349.997 595.782 350.584V351.192H589.846V351.576C589.846 351.928 589.899 352.259 590.006 352.568C590.123 352.867 590.283 353.128 590.486 353.352C590.699 353.576 590.955 353.752 591.254 353.88C591.563 354.008 591.91 354.072 592.294 354.072C592.817 354.072 593.27 353.949 593.654 353.704C594.049 353.459 594.353 353.107 594.566 352.648L595.478 353.304C595.211 353.869 594.795 354.328 594.23 354.68C593.665 355.021 592.993 355.192 592.214 355.192ZM592.214 347.624C591.862 347.624 591.542 347.688 591.254 347.816C590.966 347.933 590.715 348.104 590.502 348.328C590.299 348.552 590.139 348.819 590.022 349.128C589.905 349.427 589.846 349.757 589.846 350.12V350.232H594.406V350.056C594.406 349.32 594.203 348.733 593.798 348.296C593.403 347.848 592.875 347.624 592.214 347.624ZM597.891 355V346.744H599.171V348.088H599.235C599.438 347.619 599.721 347.245 600.083 346.968C600.457 346.691 600.953 346.552 601.571 346.552C602.425 346.552 603.097 346.829 603.587 347.384C604.089 347.928 604.339 348.701 604.339 349.704V355H603.059V349.928C603.059 348.445 602.435 347.704 601.187 347.704C600.931 347.704 600.681 347.736 600.435 347.8C600.201 347.864 599.987 347.96 599.795 348.088C599.603 348.216 599.449 348.381 599.331 348.584C599.225 348.776 599.171 349.005 599.171 349.272V355H597.891ZM608.809 355C608.361 355 608.02 354.877 607.785 354.632C607.561 354.376 607.449 354.045 607.449 353.64V347.864H606.089V346.744H606.857C607.134 346.744 607.321 346.691 607.417 346.584C607.524 346.467 607.577 346.269 607.577 345.992V344.456H608.729V346.744H610.537V347.864H608.729V353.88H610.409V355H608.809ZM615.636 355.192C615.071 355.192 614.559 355.091 614.1 354.888C613.652 354.685 613.263 354.397 612.932 354.024C612.612 353.64 612.361 353.187 612.18 352.664C612.009 352.131 611.924 351.533 611.924 350.872C611.924 350.221 612.009 349.629 612.18 349.096C612.361 348.563 612.612 348.109 612.932 347.736C613.263 347.352 613.652 347.059 614.1 346.856C614.559 346.653 615.071 346.552 615.636 346.552C616.191 346.552 616.687 346.653 617.124 346.856C617.561 347.059 617.935 347.341 618.244 347.704C618.553 348.056 618.788 348.477 618.948 348.968C619.119 349.459 619.204 349.997 619.204 350.584V351.192H613.268V351.576C613.268 351.928 613.321 352.259 613.428 352.568C613.545 352.867 613.705 353.128 613.908 353.352C614.121 353.576 614.377 353.752 614.676 353.88C614.985 354.008 615.332 354.072 615.716 354.072C616.239 354.072 616.692 353.949 617.076 353.704C617.471 353.459 617.775 353.107 617.988 352.648L618.9 353.304C618.633 353.869 618.217 354.328 617.652 354.68C617.087 355.021 616.415 355.192 615.636 355.192ZM615.636 347.624C615.284 347.624 614.964 347.688 614.676 347.816C614.388 347.933 614.137 348.104 613.924 348.328C613.721 348.552 613.561 348.819 613.444 349.128C613.327 349.427 613.268 349.757 613.268 350.12V350.232H617.828V350.056C617.828 349.32 617.625 348.733 617.22 348.296C616.825 347.848 616.297 347.624 615.636 347.624ZM621.313 355V346.744H622.593V348.264H622.673C622.822 347.869 623.089 347.517 623.473 347.208C623.857 346.899 624.385 346.744 625.057 346.744H625.553V348.024H624.801C624.108 348.024 623.564 348.157 623.169 348.424C622.785 348.68 622.593 349.005 622.593 349.4V355H621.313ZM636.057 346.744H637.321L633.625 356.92C633.529 357.165 633.433 357.368 633.337 357.528C633.241 357.699 633.124 357.832 632.985 357.928C632.847 358.024 632.671 358.093 632.457 358.136C632.255 358.179 632.004 358.2 631.705 358.2H631.049V357.08H632.345L632.969 355.32L629.881 346.744H631.161L633.145 352.36L633.529 353.704H633.609L634.057 352.36L636.057 346.744ZM641.996 355.192C641.441 355.192 640.934 355.091 640.476 354.888C640.017 354.685 639.622 354.397 639.292 354.024C638.972 353.64 638.721 353.187 638.54 352.664C638.358 352.131 638.268 351.533 638.268 350.872C638.268 350.221 638.358 349.629 638.54 349.096C638.721 348.563 638.972 348.109 639.292 347.736C639.622 347.352 640.017 347.059 640.476 346.856C640.934 346.653 641.441 346.552 641.996 346.552C642.55 346.552 643.052 346.653 643.5 346.856C643.958 347.059 644.353 347.352 644.684 347.736C645.014 348.109 645.27 348.563 645.452 349.096C645.633 349.629 645.724 350.221 645.724 350.872C645.724 351.533 645.633 352.131 645.452 352.664C645.27 353.187 645.014 353.64 644.684 354.024C644.353 354.397 643.958 354.685 643.5 354.888C643.052 355.091 642.55 355.192 641.996 355.192ZM641.996 354.056C642.689 354.056 643.254 353.843 643.692 353.416C644.129 352.989 644.348 352.339 644.348 351.464V350.28C644.348 349.405 644.129 348.755 643.692 348.328C643.254 347.901 642.689 347.688 641.996 347.688C641.302 347.688 640.737 347.901 640.3 348.328C639.862 348.755 639.644 349.405 639.644 350.28V351.464C639.644 352.339 639.862 352.989 640.3 353.416C640.737 353.843 641.302 354.056 641.996 354.056ZM652.917 353.656H652.853C652.767 353.848 652.661 354.04 652.533 354.232C652.415 354.413 652.266 354.579 652.085 354.728C651.903 354.867 651.685 354.979 651.429 355.064C651.173 355.149 650.874 355.192 650.533 355.192C649.679 355.192 649.002 354.92 648.501 354.376C647.999 353.821 647.749 353.043 647.749 352.04V346.744H649.029V351.816C649.029 353.299 649.658 354.04 650.917 354.04C651.173 354.04 651.418 354.008 651.653 353.944C651.898 353.88 652.111 353.784 652.293 353.656C652.485 353.528 652.634 353.368 652.741 353.176C652.858 352.973 652.917 352.733 652.917 352.456V346.744H654.197V355H652.917V353.656ZM656.923 355V346.744H658.203V348.264H658.283C658.432 347.869 658.699 347.517 659.083 347.208C659.467 346.899 659.995 346.744 660.667 346.744H661.163V348.024H660.411C659.717 348.024 659.173 348.157 658.779 348.424C658.395 348.68 658.203 349.005 658.203 349.4V355H656.923ZM672.579 355C672.099 355 671.752 354.872 671.539 354.616C671.336 354.36 671.208 354.04 671.155 353.656H671.075C670.893 354.168 670.595 354.552 670.179 354.808C669.763 355.064 669.267 355.192 668.691 355.192C667.816 355.192 667.133 354.968 666.643 354.52C666.163 354.072 665.923 353.464 665.923 352.696C665.923 351.917 666.205 351.32 666.771 350.904C667.347 350.488 668.237 350.28 669.443 350.28H671.075V349.464C671.075 348.877 670.915 348.429 670.595 348.12C670.275 347.811 669.784 347.656 669.123 347.656C668.621 347.656 668.2 347.768 667.859 347.992C667.528 348.216 667.251 348.515 667.027 348.888L666.259 348.168C666.483 347.72 666.84 347.341 667.331 347.032C667.821 346.712 668.44 346.552 669.187 346.552C670.189 346.552 670.968 346.797 671.523 347.288C672.077 347.779 672.355 348.461 672.355 349.336V353.88H673.299V355H672.579ZM668.899 354.104C669.219 354.104 669.512 354.067 669.779 353.992C670.045 353.917 670.275 353.811 670.467 353.672C670.659 353.533 670.808 353.373 670.915 353.192C671.021 353.011 671.075 352.813 671.075 352.6V351.24H669.379C668.643 351.24 668.104 351.347 667.763 351.56C667.432 351.773 667.267 352.083 667.267 352.488V352.824C667.267 353.229 667.411 353.544 667.699 353.768C667.997 353.992 668.397 354.104 668.899 354.104ZM680.214 353.656H680.15C680.064 353.848 679.958 354.04 679.83 354.232C679.712 354.413 679.563 354.579 679.382 354.728C679.2 354.867 678.982 354.979 678.726 355.064C678.47 355.149 678.171 355.192 677.83 355.192C676.976 355.192 676.299 354.92 675.798 354.376C675.296 353.821 675.046 353.043 675.046 352.04V346.744H676.326V351.816C676.326 353.299 676.955 354.04 678.214 354.04C678.47 354.04 678.715 354.008 678.95 353.944C679.195 353.88 679.408 353.784 679.59 353.656C679.782 353.528 679.931 353.368 680.038 353.176C680.155 352.973 680.214 352.733 680.214 352.456V346.744H681.494V355H680.214V353.656ZM686.043 355C685.595 355 685.254 354.877 685.019 354.632C684.795 354.376 684.683 354.045 684.683 353.64V347.864H683.323V346.744H684.091C684.369 346.744 684.555 346.691 684.651 346.584C684.758 346.467 684.811 346.269 684.811 345.992V344.456H685.963V346.744H687.771V347.864H685.963V353.88H687.643V355H686.043ZM689.829 343.16H691.109V348.088H691.173C691.375 347.619 691.658 347.245 692.021 346.968C692.394 346.691 692.89 346.552 693.509 346.552C694.362 346.552 695.034 346.829 695.525 347.384C696.026 347.928 696.277 348.701 696.277 349.704V355H694.997V349.928C694.997 348.445 694.373 347.704 693.125 347.704C692.869 347.704 692.618 347.736 692.373 347.8C692.138 347.864 691.925 347.96 691.733 348.088C691.541 348.216 691.386 348.381 691.269 348.584C691.162 348.776 691.109 349.005 691.109 349.272V355H689.829V343.16ZM702.027 355.192C701.461 355.192 700.949 355.091 700.491 354.888C700.043 354.685 699.653 354.397 699.323 354.024C699.003 353.64 698.752 353.187 698.571 352.664C698.4 352.131 698.315 351.533 698.315 350.872C698.315 350.221 698.4 349.629 698.571 349.096C698.752 348.563 699.003 348.109 699.323 347.736C699.653 347.352 700.043 347.059 700.491 346.856C700.949 346.653 701.461 346.552 702.027 346.552C702.581 346.552 703.077 346.653 703.515 346.856C703.952 347.059 704.325 347.341 704.635 347.704C704.944 348.056 705.179 348.477 705.339 348.968C705.509 349.459 705.595 349.997 705.595 350.584V351.192H699.659V351.576C699.659 351.928 699.712 352.259 699.819 352.568C699.936 352.867 700.096 353.128 700.299 353.352C700.512 353.576 700.768 353.752 701.067 353.88C701.376 354.008 701.723 354.072 702.107 354.072C702.629 354.072 703.083 353.949 703.467 353.704C703.861 353.459 704.165 353.107 704.379 352.648L705.291 353.304C705.024 353.869 704.608 354.328 704.043 354.68C703.477 355.021 702.805 355.192 702.027 355.192ZM702.027 347.624C701.675 347.624 701.355 347.688 701.067 347.816C700.779 347.933 700.528 348.104 700.315 348.328C700.112 348.552 699.952 348.819 699.835 349.128C699.717 349.427 699.659 349.757 699.659 350.12V350.232H704.219V350.056C704.219 349.32 704.016 348.733 703.611 348.296C703.216 347.848 702.688 347.624 702.027 347.624ZM707.704 355V346.744H708.984V348.088H709.048C709.25 347.619 709.533 347.245 709.896 346.968C710.269 346.691 710.765 346.552 711.384 346.552C712.237 346.552 712.909 346.829 713.4 347.384C713.901 347.928 714.152 348.701 714.152 349.704V355H712.872V349.928C712.872 348.445 712.248 347.704 711 347.704C710.744 347.704 710.493 347.736 710.248 347.8C710.013 347.864 709.8 347.96 709.608 348.088C709.416 348.216 709.261 348.381 709.144 348.584C709.037 348.776 708.984 349.005 708.984 349.272V355H707.704ZM718.622 355C718.174 355 717.832 354.877 717.598 354.632C717.374 354.376 717.262 354.045 717.262 353.64V347.864H715.902V346.744H716.67C716.947 346.744 717.134 346.691 717.23 346.584C717.336 346.467 717.39 346.269 717.39 345.992V344.456H718.542V346.744H720.35V347.864H718.542V353.88H720.222V355H718.622ZM723.047 344.808C722.77 344.808 722.567 344.744 722.439 344.616C722.322 344.477 722.263 344.301 722.263 344.088V343.88C722.263 343.667 722.322 343.496 722.439 343.368C722.567 343.229 722.77 343.16 723.047 343.16C723.324 343.16 723.522 343.229 723.639 343.368C723.767 343.496 723.831 343.667 723.831 343.88V344.088C723.831 344.301 723.767 344.477 723.639 344.616C723.522 344.744 723.324 344.808 723.047 344.808ZM722.407 346.744H723.687V355H722.407V346.744ZM729.479 355.192C728.903 355.192 728.386 355.091 727.927 354.888C727.468 354.685 727.079 354.397 726.759 354.024C726.45 353.651 726.21 353.197 726.039 352.664C725.879 352.131 725.799 351.533 725.799 350.872C725.799 350.211 725.879 349.613 726.039 349.08C726.21 348.547 726.45 348.093 726.759 347.72C727.079 347.347 727.468 347.059 727.927 346.856C728.386 346.653 728.903 346.552 729.479 346.552C730.3 346.552 730.956 346.733 731.447 347.096C731.948 347.448 732.322 347.912 732.567 348.488L731.495 349.032C731.346 348.605 731.1 348.275 730.759 348.04C730.418 347.805 729.991 347.688 729.479 347.688C729.095 347.688 728.759 347.752 728.471 347.88C728.183 347.997 727.943 348.168 727.751 348.392C727.559 348.605 727.415 348.867 727.319 349.176C727.223 349.475 727.175 349.805 727.175 350.168V351.576C727.175 352.301 727.367 352.899 727.751 353.368C728.146 353.827 728.722 354.056 729.479 354.056C730.514 354.056 731.26 353.576 731.719 352.616L732.647 353.24C732.38 353.837 731.98 354.312 731.447 354.664C730.924 355.016 730.268 355.192 729.479 355.192ZM740.454 355C739.974 355 739.627 354.872 739.414 354.616C739.211 354.36 739.083 354.04 739.03 353.656H738.95C738.768 354.168 738.47 354.552 738.054 354.808C737.638 355.064 737.142 355.192 736.566 355.192C735.691 355.192 735.008 354.968 734.518 354.52C734.038 354.072 733.798 353.464 733.798 352.696C733.798 351.917 734.08 351.32 734.646 350.904C735.222 350.488 736.112 350.28 737.318 350.28H738.95V349.464C738.95 348.877 738.79 348.429 738.47 348.12C738.15 347.811 737.659 347.656 736.998 347.656C736.496 347.656 736.075 347.768 735.734 347.992C735.403 348.216 735.126 348.515 734.902 348.888L734.134 348.168C734.358 347.72 734.715 347.341 735.206 347.032C735.696 346.712 736.315 346.552 737.062 346.552C738.064 346.552 738.843 346.797 739.398 347.288C739.952 347.779 740.23 348.461 740.23 349.336V353.88H741.174V355H740.454ZM736.774 354.104C737.094 354.104 737.387 354.067 737.654 353.992C737.92 353.917 738.15 353.811 738.342 353.672C738.534 353.533 738.683 353.373 738.79 353.192C738.896 353.011 738.95 352.813 738.95 352.6V351.24H737.254C736.518 351.24 735.979 351.347 735.638 351.56C735.307 351.773 735.142 352.083 735.142 352.488V352.824C735.142 353.229 735.286 353.544 735.574 353.768C735.872 353.992 736.272 354.104 736.774 354.104ZM744.825 355C744.377 355 744.035 354.877 743.801 354.632C743.577 354.376 743.465 354.045 743.465 353.64V347.864H742.105V346.744H742.873C743.15 346.744 743.337 346.691 743.433 346.584C743.539 346.467 743.593 346.269 743.593 345.992V344.456H744.745V346.744H746.553V347.864H744.745V353.88H746.425V355H744.825ZM749.25 344.808C748.973 344.808 748.77 344.744 748.642 344.616C748.525 344.477 748.466 344.301 748.466 344.088V343.88C748.466 343.667 748.525 343.496 748.642 343.368C748.77 343.229 748.973 343.16 749.25 343.16C749.527 343.16 749.725 343.229 749.842 343.368C749.97 343.496 750.034 343.667 750.034 343.88V344.088C750.034 344.301 749.97 344.477 749.842 344.616C749.725 344.744 749.527 344.808 749.25 344.808ZM748.61 346.744H749.89V355H748.61V346.744ZM755.73 355.192C755.175 355.192 754.669 355.091 754.21 354.888C753.751 354.685 753.357 354.397 753.026 354.024C752.706 353.64 752.455 353.187 752.274 352.664C752.093 352.131 752.002 351.533 752.002 350.872C752.002 350.221 752.093 349.629 752.274 349.096C752.455 348.563 752.706 348.109 753.026 347.736C753.357 347.352 753.751 347.059 754.21 346.856C754.669 346.653 755.175 346.552 755.73 346.552C756.285 346.552 756.786 346.653 757.234 346.856C757.693 347.059 758.087 347.352 758.418 347.736C758.749 348.109 759.005 348.563 759.186 349.096C759.367 349.629 759.458 350.221 759.458 350.872C759.458 351.533 759.367 352.131 759.186 352.664C759.005 353.187 758.749 353.64 758.418 354.024C758.087 354.397 757.693 354.685 757.234 354.888C756.786 355.091 756.285 355.192 755.73 355.192ZM755.73 354.056C756.423 354.056 756.989 353.843 757.426 353.416C757.863 352.989 758.082 352.339 758.082 351.464V350.28C758.082 349.405 757.863 348.755 757.426 348.328C756.989 347.901 756.423 347.688 755.73 347.688C755.037 347.688 754.471 347.901 754.034 348.328C753.597 348.755 753.378 349.405 753.378 350.28V351.464C753.378 352.339 753.597 352.989 754.034 353.416C754.471 353.843 755.037 354.056 755.73 354.056ZM761.563 355V346.744H762.843V348.088H762.907C763.11 347.619 763.392 347.245 763.755 346.968C764.128 346.691 764.624 346.552 765.243 346.552C766.096 346.552 766.768 346.829 767.259 347.384C767.76 347.928 768.011 348.701 768.011 349.704V355H766.731V349.928C766.731 348.445 766.107 347.704 764.859 347.704C764.603 347.704 764.352 347.736 764.107 347.8C763.872 347.864 763.659 347.96 763.467 348.088C763.275 348.216 763.12 348.381 763.003 348.584C762.896 348.776 762.843 349.005 762.843 349.272V355H761.563ZM777.51 355.192C776.934 355.192 776.417 355.091 775.958 354.888C775.499 354.685 775.11 354.397 774.79 354.024C774.481 353.651 774.241 353.197 774.07 352.664C773.91 352.131 773.83 351.533 773.83 350.872C773.83 350.211 773.91 349.613 774.07 349.08C774.241 348.547 774.481 348.093 774.79 347.72C775.11 347.347 775.499 347.059 775.958 346.856C776.417 346.653 776.934 346.552 777.51 346.552C778.331 346.552 778.987 346.733 779.478 347.096C779.979 347.448 780.353 347.912 780.598 348.488L779.526 349.032C779.377 348.605 779.131 348.275 778.79 348.04C778.449 347.805 778.022 347.688 777.51 347.688C777.126 347.688 776.79 347.752 776.502 347.88C776.214 347.997 775.974 348.168 775.782 348.392C775.59 348.605 775.446 348.867 775.35 349.176C775.254 349.475 775.206 349.805 775.206 350.168V351.576C775.206 352.301 775.398 352.899 775.782 353.368C776.177 353.827 776.753 354.056 777.51 354.056C778.545 354.056 779.291 353.576 779.75 352.616L780.678 353.24C780.411 353.837 780.011 354.312 779.478 354.664C778.955 355.016 778.299 355.192 777.51 355.192ZM782.485 355V346.744H783.765V348.264H783.845C783.994 347.869 784.261 347.517 784.645 347.208C785.029 346.899 785.557 346.744 786.229 346.744H786.725V348.024H785.973C785.28 348.024 784.736 348.157 784.341 348.424C783.957 348.68 783.765 349.005 783.765 349.4V355H782.485ZM791.386 355.192C790.821 355.192 790.309 355.091 789.85 354.888C789.402 354.685 789.013 354.397 788.682 354.024C788.362 353.64 788.111 353.187 787.93 352.664C787.759 352.131 787.674 351.533 787.674 350.872C787.674 350.221 787.759 349.629 787.93 349.096C788.111 348.563 788.362 348.109 788.682 347.736C789.013 347.352 789.402 347.059 789.85 346.856C790.309 346.653 790.821 346.552 791.386 346.552C791.941 346.552 792.437 346.653 792.874 346.856C793.311 347.059 793.685 347.341 793.994 347.704C794.303 348.056 794.538 348.477 794.698 348.968C794.869 349.459 794.954 349.997 794.954 350.584V351.192H789.018V351.576C789.018 351.928 789.071 352.259 789.178 352.568C789.295 352.867 789.455 353.128 789.658 353.352C789.871 353.576 790.127 353.752 790.426 353.88C790.735 354.008 791.082 354.072 791.466 354.072C791.989 354.072 792.442 353.949 792.826 353.704C793.221 353.459 793.525 353.107 793.738 352.648L794.65 353.304C794.383 353.869 793.967 354.328 793.402 354.68C792.837 355.021 792.165 355.192 791.386 355.192ZM791.386 347.624C791.034 347.624 790.714 347.688 790.426 347.816C790.138 347.933 789.887 348.104 789.674 348.328C789.471 348.552 789.311 348.819 789.194 349.128C789.077 349.427 789.018 349.757 789.018 350.12V350.232H793.578V350.056C793.578 349.32 793.375 348.733 792.97 348.296C792.575 347.848 792.047 347.624 791.386 347.624ZM802.343 353.656H802.279C801.778 354.68 800.972 355.192 799.863 355.192C799.351 355.192 798.887 355.091 798.471 354.888C798.055 354.685 797.698 354.397 797.399 354.024C797.111 353.651 796.887 353.197 796.727 352.664C796.578 352.131 796.503 351.533 796.503 350.872C796.503 350.211 796.578 349.613 796.727 349.08C796.887 348.547 797.111 348.093 797.399 347.72C797.698 347.347 798.055 347.059 798.471 346.856C798.887 346.653 799.351 346.552 799.863 346.552C800.439 346.552 800.93 346.68 801.335 346.936C801.751 347.181 802.066 347.565 802.279 348.088H802.343V343.16H803.623V355H802.343V353.656ZM800.215 354.04C800.503 354.04 800.775 354.003 801.031 353.928C801.298 353.853 801.527 353.747 801.719 353.608C801.911 353.459 802.06 353.283 802.167 353.08C802.284 352.867 802.343 352.627 802.343 352.36V349.288C802.343 349.064 802.284 348.856 802.167 348.664C802.06 348.461 801.911 348.291 801.719 348.152C801.527 348.013 801.298 347.907 801.031 347.832C800.775 347.747 800.503 347.704 800.215 347.704C799.49 347.704 798.919 347.933 798.503 348.392C798.087 348.84 797.879 349.432 797.879 350.168V351.576C797.879 352.312 798.087 352.909 798.503 353.368C798.919 353.816 799.49 354.04 800.215 354.04ZM809.448 355.192C808.883 355.192 808.371 355.091 807.912 354.888C807.464 354.685 807.075 354.397 806.744 354.024C806.424 353.64 806.174 353.187 805.992 352.664C805.822 352.131 805.736 351.533 805.736 350.872C805.736 350.221 805.822 349.629 805.992 349.096C806.174 348.563 806.424 348.109 806.744 347.736C807.075 347.352 807.464 347.059 807.912 346.856C808.371 346.653 808.883 346.552 809.448 346.552C810.003 346.552 810.499 346.653 810.936 346.856C811.374 347.059 811.747 347.341 812.056 347.704C812.366 348.056 812.6 348.477 812.76 348.968C812.931 349.459 813.016 349.997 813.016 350.584V351.192H807.08V351.576C807.08 351.928 807.134 352.259 807.24 352.568C807.358 352.867 807.518 353.128 807.72 353.352C807.934 353.576 808.19 353.752 808.488 353.88C808.798 354.008 809.144 354.072 809.528 354.072C810.051 354.072 810.504 353.949 810.888 353.704C811.283 353.459 811.587 353.107 811.8 352.648L812.712 353.304C812.446 353.869 812.03 354.328 811.464 354.68C810.899 355.021 810.227 355.192 809.448 355.192ZM809.448 347.624C809.096 347.624 808.776 347.688 808.488 347.816C808.2 347.933 807.95 348.104 807.736 348.328C807.534 348.552 807.374 348.819 807.256 349.128C807.139 349.427 807.08 349.757 807.08 350.12V350.232H811.64V350.056C811.64 349.32 811.438 348.733 811.032 348.296C810.638 347.848 810.11 347.624 809.448 347.624ZM815.126 355V346.744H816.406V348.088H816.47C816.672 347.619 816.955 347.245 817.318 346.968C817.691 346.691 818.187 346.552 818.806 346.552C819.659 346.552 820.331 346.829 820.822 347.384C821.323 347.928 821.574 348.701 821.574 349.704V355H820.294V349.928C820.294 348.445 819.67 347.704 818.422 347.704C818.166 347.704 817.915 347.736 817.67 347.8C817.435 347.864 817.222 347.96 817.03 348.088C816.838 348.216 816.683 348.381 816.566 348.584C816.459 348.776 816.406 349.005 816.406 349.272V355H815.126ZM826.043 355C825.595 355 825.254 354.877 825.019 354.632C824.795 354.376 824.683 354.045 824.683 353.64V347.864H823.323V346.744H824.091C824.369 346.744 824.555 346.691 824.651 346.584C824.758 346.467 824.811 346.269 824.811 345.992V344.456H825.963V346.744H827.771V347.864H825.963V353.88H827.643V355H826.043ZM830.469 344.808C830.191 344.808 829.989 344.744 829.861 344.616C829.743 344.477 829.685 344.301 829.685 344.088V343.88C829.685 343.667 829.743 343.496 829.861 343.368C829.989 343.229 830.191 343.16 830.469 343.16C830.746 343.16 830.943 343.229 831.061 343.368C831.189 343.496 831.253 343.667 831.253 343.88V344.088C831.253 344.301 831.189 344.477 831.061 344.616C830.943 344.744 830.746 344.808 830.469 344.808ZM829.829 346.744H831.109V355H829.829V346.744ZM839.829 355C839.349 355 839.002 354.872 838.789 354.616C838.586 354.36 838.458 354.04 838.405 353.656H838.325C838.143 354.168 837.845 354.552 837.429 354.808C837.013 355.064 836.517 355.192 835.941 355.192C835.066 355.192 834.383 354.968 833.893 354.52C833.413 354.072 833.173 353.464 833.173 352.696C833.173 351.917 833.455 351.32 834.021 350.904C834.597 350.488 835.487 350.28 836.693 350.28H838.325V349.464C838.325 348.877 838.165 348.429 837.845 348.12C837.525 347.811 837.034 347.656 836.373 347.656C835.871 347.656 835.45 347.768 835.109 347.992C834.778 348.216 834.501 348.515 834.277 348.888L833.509 348.168C833.733 347.72 834.09 347.341 834.581 347.032C835.071 346.712 835.69 346.552 836.437 346.552C837.439 346.552 838.218 346.797 838.773 347.288C839.327 347.779 839.605 348.461 839.605 349.336V353.88H840.549V355H839.829ZM836.149 354.104C836.469 354.104 836.762 354.067 837.029 353.992C837.295 353.917 837.525 353.811 837.717 353.672C837.909 353.533 838.058 353.373 838.165 353.192C838.271 353.011 838.325 352.813 838.325 352.6V351.24H836.629C835.893 351.24 835.354 351.347 835.013 351.56C834.682 351.773 834.517 352.083 834.517 352.488V352.824C834.517 353.229 834.661 353.544 834.949 353.768C835.247 353.992 835.647 354.104 836.149 354.104ZM843.736 355C843.288 355 842.946 354.877 842.712 354.632C842.488 354.376 842.376 354.056 842.376 353.672V343.16H843.656V353.88H844.872V355H843.736ZM849.215 355.192C848.447 355.192 847.802 355.048 847.279 354.76C846.767 354.461 846.324 354.067 845.951 353.576L846.863 352.84C847.183 353.245 847.54 353.56 847.935 353.784C848.33 353.997 848.788 354.104 849.311 354.104C849.855 354.104 850.276 353.987 850.575 353.752C850.884 353.517 851.039 353.187 851.039 352.76C851.039 352.44 850.932 352.168 850.719 351.944C850.516 351.709 850.143 351.549 849.599 351.464L848.943 351.368C848.559 351.315 848.207 351.235 847.887 351.128C847.567 351.011 847.284 350.861 847.039 350.68C846.804 350.488 846.618 350.253 846.479 349.976C846.351 349.699 846.287 349.368 846.287 348.984C846.287 348.579 846.362 348.227 846.511 347.928C846.66 347.619 846.863 347.363 847.119 347.16C847.386 346.957 847.7 346.808 848.063 346.712C848.426 346.605 848.815 346.552 849.231 346.552C849.903 346.552 850.463 346.669 850.911 346.904C851.37 347.139 851.77 347.464 852.111 347.88L851.263 348.648C851.082 348.392 850.815 348.163 850.463 347.96C850.111 347.747 849.668 347.64 849.135 347.64C848.602 347.64 848.196 347.757 847.919 347.992C847.652 348.216 847.519 348.525 847.519 348.92C847.519 349.325 847.652 349.619 847.919 349.8C848.196 349.981 848.591 350.115 849.103 350.2L849.743 350.296C850.66 350.435 851.311 350.701 851.695 351.096C852.079 351.48 852.271 351.987 852.271 352.616C852.271 353.416 851.999 354.045 851.455 354.504C850.911 354.963 850.164 355.192 849.215 355.192ZM855.27 355.192C854.928 355.192 854.678 355.107 854.518 354.936C854.368 354.765 854.294 354.541 854.294 354.264V354.056C854.294 353.779 854.368 353.555 854.518 353.384C854.678 353.213 854.928 353.128 855.27 353.128C855.611 353.128 855.856 353.213 856.006 353.384C856.166 353.555 856.246 353.779 856.246 354.056V354.264C856.246 354.541 856.166 354.765 856.006 354.936C855.856 355.107 855.611 355.192 855.27 355.192Z" fill="#152935"/>
<path d="M537.876 317.141V300.389H539.316V315.869H546.708V317.141H537.876ZM553.702 317.429C552.886 317.429 552.15 317.285 551.494 316.997C550.838 316.709 550.278 316.293 549.814 315.749C549.35 315.189 548.99 314.509 548.734 313.709C548.478 312.909 548.35 312.005 548.35 310.997C548.35 309.989 548.478 309.093 548.734 308.309C548.99 307.509 549.35 306.837 549.814 306.293C550.278 305.733 550.838 305.309 551.494 305.021C552.15 304.717 552.886 304.565 553.702 304.565C554.518 304.565 555.254 304.717 555.91 305.021C556.566 305.309 557.126 305.733 557.59 306.293C558.054 306.837 558.414 307.509 558.67 308.309C558.926 309.093 559.054 309.989 559.054 310.997C559.054 312.005 558.926 312.909 558.67 313.709C558.414 314.509 558.054 315.189 557.59 315.749C557.126 316.293 556.566 316.709 555.91 316.997C555.254 317.285 554.518 317.429 553.702 317.429ZM553.702 316.205C554.902 316.205 555.846 315.829 556.534 315.077C557.238 314.325 557.59 313.221 557.59 311.765V310.229C557.59 308.789 557.238 307.693 556.534 306.941C555.846 306.173 554.902 305.789 553.702 305.789C552.502 305.789 551.55 306.165 550.846 306.917C550.158 307.669 549.814 308.773 549.814 310.229V311.765C549.814 313.205 550.158 314.309 550.846 315.077C551.55 315.829 552.502 316.205 553.702 316.205ZM572.609 318.581C572.609 319.829 572.105 320.749 571.097 321.341C570.105 321.933 568.641 322.229 566.705 322.229C564.833 322.229 563.481 321.957 562.649 321.413C561.817 320.869 561.401 320.117 561.401 319.157C561.401 318.453 561.585 317.893 561.953 317.477C562.321 317.061 562.841 316.757 563.513 316.565V316.373C562.745 316.069 562.361 315.509 562.361 314.693C562.361 314.085 562.561 313.621 562.961 313.301C563.361 312.981 563.857 312.741 564.449 312.581V312.485C563.729 312.165 563.169 311.685 562.769 311.045C562.369 310.405 562.169 309.637 562.169 308.741C562.169 308.117 562.273 307.549 562.481 307.037C562.689 306.525 562.985 306.085 563.369 305.717C563.769 305.349 564.241 305.069 564.785 304.877C565.345 304.669 565.961 304.565 566.633 304.565C567.577 304.565 568.401 304.765 569.105 305.165V304.565C569.105 304.197 569.193 303.901 569.369 303.677C569.545 303.437 569.833 303.317 570.233 303.317H572.345V304.517H569.849V305.693C570.265 306.061 570.585 306.509 570.809 307.037C571.033 307.549 571.145 308.117 571.145 308.741C571.145 309.365 571.033 309.933 570.809 310.445C570.601 310.957 570.297 311.405 569.897 311.789C569.513 312.157 569.041 312.445 568.481 312.653C567.937 312.845 567.329 312.941 566.657 312.941C566.433 312.941 566.217 312.925 566.009 312.893C565.801 312.861 565.593 312.829 565.385 312.797C564.857 312.941 564.417 313.141 564.065 313.397C563.729 313.637 563.561 313.965 563.561 314.381C563.561 315.117 564.217 315.485 565.529 315.485H568.385C569.873 315.485 570.945 315.765 571.601 316.325C572.273 316.869 572.609 317.621 572.609 318.581ZM571.289 318.677C571.289 318.085 571.073 317.613 570.641 317.261C570.225 316.925 569.473 316.757 568.385 316.757H564.401C563.873 316.933 563.457 317.197 563.153 317.549C562.849 317.901 562.697 318.341 562.697 318.869C562.697 319.509 562.961 320.037 563.489 320.453C564.017 320.885 564.817 321.101 565.889 321.101H567.425C568.625 321.101 569.569 320.901 570.257 320.501C570.945 320.117 571.289 319.509 571.289 318.677ZM566.657 311.837C567.601 311.837 568.337 311.605 568.865 311.141C569.409 310.661 569.681 309.989 569.681 309.125V308.357C569.681 307.509 569.409 306.853 568.865 306.389C568.337 305.909 567.601 305.669 566.657 305.669C565.697 305.669 564.953 305.909 564.425 306.389C563.897 306.853 563.633 307.509 563.633 308.357V309.125C563.633 309.989 563.897 310.661 564.425 311.141C564.969 311.605 565.713 311.837 566.657 311.837ZM575.904 301.517C575.584 301.517 575.344 301.437 575.184 301.277C575.04 301.117 574.968 300.909 574.968 300.653V300.413C574.968 300.157 575.04 299.949 575.184 299.789C575.344 299.629 575.584 299.549 575.904 299.549C576.224 299.549 576.456 299.629 576.6 299.789C576.76 299.949 576.84 300.157 576.84 300.413V300.653C576.84 300.909 576.76 301.117 576.6 301.277C576.456 301.437 576.224 301.517 575.904 301.517ZM575.232 304.853H576.6V317.141H575.232V304.853ZM581.068 317.141V304.853H582.436V306.797H582.508C582.78 306.157 583.204 305.629 583.78 305.213C584.356 304.781 585.14 304.565 586.132 304.565C587.444 304.565 588.46 304.973 589.18 305.789C589.916 306.589 590.284 307.741 590.284 309.245V317.141H588.916V309.485C588.916 308.237 588.644 307.309 588.1 306.701C587.572 306.093 586.796 305.789 585.772 305.789C585.34 305.789 584.924 305.845 584.524 305.957C584.124 306.069 583.764 306.237 583.444 306.461C583.14 306.685 582.892 306.973 582.7 307.325C582.524 307.661 582.436 308.053 582.436 308.501V317.141H581.068Z" fill="#5A6872"/>
<rect x="515" y="232" width="410" height="4" fill="#3D70B2"/>
<rect x="536" y="440" width="369" height="40" fill="white"/>
<path d="M536 479.519H905" stroke="#5A6872"/>
<path d="M562.557 464C562.137 464 561.834 463.888 561.647 463.664C561.47 463.44 561.358 463.16 561.311 462.824H561.241C561.083 463.272 560.821 463.608 560.457 463.832C560.093 464.056 559.659 464.168 559.155 464.168C558.39 464.168 557.793 463.972 557.363 463.58C556.943 463.188 556.733 462.656 556.733 461.984C556.733 461.303 556.981 460.78 557.475 460.416C557.979 460.052 558.759 459.87 559.813 459.87H561.241V459.156C561.241 458.643 561.101 458.251 560.821 457.98C560.541 457.709 560.112 457.574 559.533 457.574C559.095 457.574 558.726 457.672 558.427 457.868C558.138 458.064 557.895 458.325 557.699 458.652L557.027 458.022C557.223 457.63 557.536 457.299 557.965 457.028C558.395 456.748 558.936 456.608 559.589 456.608C560.467 456.608 561.148 456.823 561.633 457.252C562.119 457.681 562.361 458.279 562.361 459.044V463.02H563.187V464H562.557ZM559.337 463.216C559.617 463.216 559.874 463.183 560.107 463.118C560.341 463.053 560.541 462.959 560.709 462.838C560.877 462.717 561.008 462.577 561.101 462.418C561.195 462.259 561.241 462.087 561.241 461.9V460.71H559.757C559.113 460.71 558.642 460.803 558.343 460.99C558.054 461.177 557.909 461.447 557.909 461.802V462.096C557.909 462.451 558.035 462.726 558.287 462.922C558.549 463.118 558.899 463.216 559.337 463.216ZM564.786 464V456.776H565.906V457.952H565.962C566.139 457.541 566.386 457.215 566.704 456.972C567.03 456.729 567.464 456.608 568.006 456.608C568.752 456.608 569.34 456.851 569.77 457.336C570.208 457.812 570.428 458.489 570.428 459.366V464H569.308V459.562C569.308 458.265 568.762 457.616 567.67 457.616C567.446 457.616 567.226 457.644 567.012 457.7C566.806 457.756 566.62 457.84 566.452 457.952C566.284 458.064 566.148 458.209 566.046 458.386C565.952 458.554 565.906 458.755 565.906 458.988V464H564.786ZM577.363 462.824H577.307C576.868 463.72 576.163 464.168 575.193 464.168C574.745 464.168 574.339 464.079 573.975 463.902C573.611 463.725 573.298 463.473 573.037 463.146C572.785 462.819 572.589 462.423 572.449 461.956C572.318 461.489 572.253 460.967 572.253 460.388C572.253 459.809 572.318 459.287 572.449 458.82C572.589 458.353 572.785 457.957 573.037 457.63C573.298 457.303 573.611 457.051 573.975 456.874C574.339 456.697 574.745 456.608 575.193 456.608C575.697 456.608 576.126 456.72 576.481 456.944C576.845 457.159 577.12 457.495 577.307 457.952H577.363V453.64H578.483V464H577.363V462.824ZM575.501 463.16C575.753 463.16 575.991 463.127 576.215 463.062C576.448 462.997 576.649 462.903 576.817 462.782C576.985 462.651 577.115 462.497 577.209 462.32C577.311 462.133 577.363 461.923 577.363 461.69V459.002C577.363 458.806 577.311 458.624 577.209 458.456C577.115 458.279 576.985 458.129 576.817 458.008C576.649 457.887 576.448 457.793 576.215 457.728C575.991 457.653 575.753 457.616 575.501 457.616C574.866 457.616 574.367 457.817 574.003 458.218C573.639 458.61 573.457 459.128 573.457 459.772V461.004C573.457 461.648 573.639 462.171 574.003 462.572C574.367 462.964 574.866 463.16 575.501 463.16ZM583.58 464.168C583.085 464.168 582.637 464.079 582.236 463.902C581.844 463.725 581.503 463.473 581.214 463.146C580.934 462.81 580.715 462.413 580.556 461.956C580.407 461.489 580.332 460.967 580.332 460.388C580.332 459.819 580.407 459.301 580.556 458.834C580.715 458.367 580.934 457.971 581.214 457.644C581.503 457.308 581.844 457.051 582.236 456.874C582.637 456.697 583.085 456.608 583.58 456.608C584.065 456.608 584.499 456.697 584.882 456.874C585.265 457.051 585.591 457.299 585.862 457.616C586.133 457.924 586.338 458.293 586.478 458.722C586.627 459.151 586.702 459.623 586.702 460.136V460.668H581.508V461.004C581.508 461.312 581.555 461.601 581.648 461.872C581.751 462.133 581.891 462.362 582.068 462.558C582.255 462.754 582.479 462.908 582.74 463.02C583.011 463.132 583.314 463.188 583.65 463.188C584.107 463.188 584.504 463.081 584.84 462.866C585.185 462.651 585.451 462.343 585.638 461.942L586.436 462.516C586.203 463.011 585.839 463.412 585.344 463.72C584.849 464.019 584.261 464.168 583.58 464.168ZM583.58 457.546C583.272 457.546 582.992 457.602 582.74 457.714C582.488 457.817 582.269 457.966 582.082 458.162C581.905 458.358 581.765 458.591 581.662 458.862C581.559 459.123 581.508 459.413 581.508 459.73V459.828H585.498V459.674C585.498 459.03 585.321 458.517 584.966 458.134C584.621 457.742 584.159 457.546 583.58 457.546ZM588.547 464V456.776H589.667V458.106H589.737C589.868 457.761 590.101 457.453 590.437 457.182C590.773 456.911 591.235 456.776 591.823 456.776H592.257V457.896H591.599C590.993 457.896 590.517 458.013 590.171 458.246C589.835 458.47 589.667 458.755 589.667 459.1V464H588.547ZM595.858 464.168C595.186 464.168 594.621 464.042 594.164 463.79C593.716 463.529 593.329 463.183 593.002 462.754L593.8 462.11C594.08 462.465 594.393 462.74 594.738 462.936C595.083 463.123 595.485 463.216 595.942 463.216C596.418 463.216 596.787 463.113 597.048 462.908C597.319 462.703 597.454 462.413 597.454 462.04C597.454 461.76 597.361 461.522 597.174 461.326C596.997 461.121 596.67 460.981 596.194 460.906L595.62 460.822C595.284 460.775 594.976 460.705 594.696 460.612C594.416 460.509 594.169 460.379 593.954 460.22C593.749 460.052 593.585 459.847 593.464 459.604C593.352 459.361 593.296 459.072 593.296 458.736C593.296 458.381 593.361 458.073 593.492 457.812C593.623 457.541 593.8 457.317 594.024 457.14C594.257 456.963 594.533 456.832 594.85 456.748C595.167 456.655 595.508 456.608 595.872 456.608C596.46 456.608 596.95 456.711 597.342 456.916C597.743 457.121 598.093 457.406 598.392 457.77L597.65 458.442C597.491 458.218 597.258 458.017 596.95 457.84C596.642 457.653 596.255 457.56 595.788 457.56C595.321 457.56 594.967 457.663 594.724 457.868C594.491 458.064 594.374 458.335 594.374 458.68C594.374 459.035 594.491 459.291 594.724 459.45C594.967 459.609 595.312 459.725 595.76 459.8L596.32 459.884C597.123 460.005 597.692 460.239 598.028 460.584C598.364 460.92 598.532 461.363 598.532 461.914C598.532 462.614 598.294 463.165 597.818 463.566C597.342 463.967 596.689 464.168 595.858 464.168ZM602.598 464.168C601.926 464.168 601.362 464.042 600.904 463.79C600.456 463.529 600.069 463.183 599.742 462.754L600.54 462.11C600.82 462.465 601.133 462.74 601.478 462.936C601.824 463.123 602.225 463.216 602.682 463.216C603.158 463.216 603.527 463.113 603.788 462.908C604.059 462.703 604.194 462.413 604.194 462.04C604.194 461.76 604.101 461.522 603.914 461.326C603.737 461.121 603.41 460.981 602.934 460.906L602.36 460.822C602.024 460.775 601.716 460.705 601.436 460.612C601.156 460.509 600.909 460.379 600.694 460.22C600.489 460.052 600.326 459.847 600.204 459.604C600.092 459.361 600.036 459.072 600.036 458.736C600.036 458.381 600.102 458.073 600.232 457.812C600.363 457.541 600.54 457.317 600.764 457.14C600.998 456.963 601.273 456.832 601.59 456.748C601.908 456.655 602.248 456.608 602.612 456.608C603.2 456.608 603.69 456.711 604.082 456.916C604.484 457.121 604.834 457.406 605.132 457.77L604.39 458.442C604.232 458.218 603.998 458.017 603.69 457.84C603.382 457.653 602.995 457.56 602.528 457.56C602.062 457.56 601.707 457.663 601.464 457.868C601.231 458.064 601.114 458.335 601.114 458.68C601.114 459.035 601.231 459.291 601.464 459.45C601.707 459.609 602.052 459.725 602.5 459.8L603.06 459.884C603.863 460.005 604.432 460.239 604.768 460.584C605.104 460.92 605.272 461.363 605.272 461.914C605.272 462.614 605.034 463.165 604.558 463.566C604.082 463.967 603.429 464.168 602.598 464.168ZM609.981 464.168C609.495 464.168 609.052 464.079 608.651 463.902C608.249 463.725 607.904 463.473 607.615 463.146C607.335 462.81 607.115 462.413 606.957 461.956C606.798 461.489 606.719 460.967 606.719 460.388C606.719 459.819 606.798 459.301 606.957 458.834C607.115 458.367 607.335 457.971 607.615 457.644C607.904 457.308 608.249 457.051 608.651 456.874C609.052 456.697 609.495 456.608 609.981 456.608C610.466 456.608 610.905 456.697 611.297 456.874C611.698 457.051 612.043 457.308 612.333 457.644C612.622 457.971 612.846 458.367 613.005 458.834C613.163 459.301 613.243 459.819 613.243 460.388C613.243 460.967 613.163 461.489 613.005 461.956C612.846 462.413 612.622 462.81 612.333 463.146C612.043 463.473 611.698 463.725 611.297 463.902C610.905 464.079 610.466 464.168 609.981 464.168ZM609.981 463.174C610.587 463.174 611.082 462.987 611.465 462.614C611.847 462.241 612.039 461.671 612.039 460.906V459.87C612.039 459.105 611.847 458.535 611.465 458.162C611.082 457.789 610.587 457.602 609.981 457.602C609.374 457.602 608.879 457.789 608.497 458.162C608.114 458.535 607.923 459.105 607.923 459.87V460.906C607.923 461.671 608.114 462.241 608.497 462.614C608.879 462.987 609.374 463.174 609.981 463.174ZM615.085 464V456.776H616.205V457.952H616.261C616.438 457.541 616.685 457.215 617.003 456.972C617.329 456.729 617.763 456.608 618.305 456.608C619.051 456.608 619.639 456.851 620.069 457.336C620.507 457.812 620.727 458.489 620.727 459.366V464H619.607V459.562C619.607 458.265 619.061 457.616 617.969 457.616C617.745 457.616 617.525 457.644 617.311 457.7C617.105 457.756 616.919 457.84 616.751 457.952C616.583 458.064 616.447 458.209 616.345 458.386C616.251 458.554 616.205 458.755 616.205 458.988V464H615.085Z" fill="#152935"/>
<path d="M538.898 418.228V424.234C538.898 424.999 539.043 425.573 539.332 425.956C539.631 426.339 540.13 426.53 540.83 426.53C541.53 426.53 542.025 426.339 542.314 425.956C542.613 425.573 542.762 424.999 542.762 424.234V418.228H544.582V423.996C544.582 424.715 544.512 425.335 544.372 425.858C544.241 426.381 544.027 426.815 543.728 427.16C543.429 427.505 543.037 427.762 542.552 427.93C542.076 428.089 541.497 428.168 540.816 428.168C540.125 428.168 539.542 428.089 539.066 427.93C538.599 427.762 538.217 427.505 537.918 427.16C537.619 426.815 537.405 426.381 537.274 425.858C537.143 425.335 537.078 424.715 537.078 423.996V418.228H538.898ZM549.096 428.168C548.396 428.168 547.808 428.051 547.332 427.818C546.856 427.575 546.436 427.244 546.072 426.824L547.164 425.76C547.435 426.068 547.729 426.311 548.046 426.488C548.373 426.665 548.746 426.754 549.166 426.754C549.595 426.754 549.903 426.679 550.09 426.53C550.286 426.381 550.384 426.175 550.384 425.914C550.384 425.699 550.314 425.531 550.174 425.41C550.043 425.279 549.815 425.191 549.488 425.144L548.76 425.046C547.967 424.943 547.36 424.719 546.94 424.374C546.529 424.019 546.324 423.506 546.324 422.834C546.324 422.479 546.389 422.162 546.52 421.882C546.651 421.593 546.837 421.35 547.08 421.154C547.323 420.949 547.612 420.795 547.948 420.692C548.293 420.58 548.676 420.524 549.096 420.524C549.451 420.524 549.763 420.552 550.034 420.608C550.314 420.655 550.566 420.729 550.79 420.832C551.014 420.925 551.219 421.047 551.406 421.196C551.593 421.336 551.775 421.495 551.952 421.672L550.902 422.722C550.687 422.498 550.431 422.311 550.132 422.162C549.833 422.013 549.507 421.938 549.152 421.938C548.76 421.938 548.475 422.008 548.298 422.148C548.13 422.288 548.046 422.47 548.046 422.694C548.046 422.937 548.116 423.123 548.256 423.254C548.405 423.375 548.653 423.464 548.998 423.52L549.74 423.618C551.317 423.842 552.106 424.561 552.106 425.774C552.106 426.129 552.031 426.455 551.882 426.754C551.742 427.043 551.541 427.295 551.28 427.51C551.019 427.715 550.701 427.879 550.328 428C549.964 428.112 549.553 428.168 549.096 428.168ZM556.642 428.168C556.101 428.168 555.616 428.079 555.186 427.902C554.766 427.715 554.407 427.459 554.108 427.132C553.819 426.796 553.595 426.395 553.436 425.928C553.278 425.452 553.198 424.92 553.198 424.332C553.198 423.753 553.273 423.231 553.422 422.764C553.581 422.297 553.805 421.901 554.094 421.574C554.384 421.238 554.738 420.981 555.158 420.804C555.578 420.617 556.054 420.524 556.586 420.524C557.156 420.524 557.65 420.622 558.07 420.818C558.49 421.014 558.836 421.28 559.106 421.616C559.377 421.952 559.578 422.344 559.708 422.792C559.848 423.231 559.918 423.702 559.918 424.206V424.794H555.06V424.976C555.06 425.508 555.21 425.937 555.508 426.264C555.807 426.581 556.25 426.74 556.838 426.74C557.286 426.74 557.65 426.647 557.93 426.46C558.22 426.273 558.476 426.035 558.7 425.746L559.666 426.824C559.368 427.244 558.957 427.575 558.434 427.818C557.921 428.051 557.324 428.168 556.642 428.168ZM556.614 421.868C556.138 421.868 555.76 422.027 555.48 422.344C555.2 422.661 555.06 423.072 555.06 423.576V423.688H558.056V423.562C558.056 423.058 557.93 422.652 557.678 422.344C557.436 422.027 557.081 421.868 556.614 421.868ZM561.495 428V420.692H563.287V422.204H563.357C563.404 422.008 563.474 421.821 563.567 421.644C563.67 421.457 563.8 421.294 563.959 421.154C564.118 421.014 564.304 420.902 564.519 420.818C564.743 420.734 565 420.692 565.289 420.692H565.681V422.386H565.121C564.514 422.386 564.057 422.475 563.749 422.652C563.441 422.829 563.287 423.119 563.287 423.52V428H561.495ZM570.3 428V420.692H572.092V421.91H572.162C572.311 421.518 572.544 421.191 572.862 420.93C573.188 420.659 573.636 420.524 574.206 420.524C574.962 420.524 575.54 420.771 575.942 421.266C576.343 421.761 576.544 422.465 576.544 423.38V428H574.752V423.562C574.752 423.039 574.658 422.647 574.472 422.386C574.285 422.125 573.977 421.994 573.548 421.994C573.361 421.994 573.179 422.022 573.002 422.078C572.834 422.125 572.68 422.199 572.54 422.302C572.409 422.395 572.302 422.517 572.218 422.666C572.134 422.806 572.092 422.974 572.092 423.17V428H570.3ZM583.906 428C583.514 428 583.201 427.888 582.968 427.664C582.744 427.431 582.604 427.123 582.548 426.74H582.464C582.343 427.216 582.095 427.575 581.722 427.818C581.349 428.051 580.887 428.168 580.336 428.168C579.589 428.168 579.015 427.972 578.614 427.58C578.213 427.188 578.012 426.665 578.012 426.012C578.012 425.256 578.283 424.696 578.824 424.332C579.365 423.959 580.135 423.772 581.134 423.772H582.38V423.24C582.38 422.829 582.273 422.512 582.058 422.288C581.843 422.064 581.498 421.952 581.022 421.952C580.602 421.952 580.261 422.045 580 422.232C579.748 422.409 579.533 422.624 579.356 422.876L578.292 421.924C578.563 421.504 578.922 421.168 579.37 420.916C579.818 420.655 580.411 420.524 581.148 420.524C582.137 420.524 582.889 420.748 583.402 421.196C583.915 421.644 584.172 422.288 584.172 423.128V426.572H584.9V428H583.906ZM580.938 426.866C581.339 426.866 581.68 426.777 581.96 426.6C582.24 426.423 582.38 426.161 582.38 425.816V424.85H581.232C580.299 424.85 579.832 425.149 579.832 425.746V425.984C579.832 426.283 579.925 426.507 580.112 426.656C580.308 426.796 580.583 426.866 580.938 426.866ZM586.35 428V420.692H588.142V421.91H588.212C588.352 421.527 588.576 421.201 588.884 420.93C589.192 420.659 589.622 420.524 590.172 420.524C590.676 420.524 591.11 420.645 591.474 420.888C591.838 421.131 592.109 421.499 592.286 421.994H592.314C592.445 421.583 592.702 421.238 593.084 420.958C593.476 420.669 593.966 420.524 594.554 420.524C595.273 420.524 595.824 420.771 596.206 421.266C596.598 421.761 596.794 422.465 596.794 423.38V428H595.002V423.562C595.002 422.517 594.61 421.994 593.826 421.994C593.649 421.994 593.476 422.022 593.308 422.078C593.15 422.125 593.005 422.199 592.874 422.302C592.753 422.395 592.655 422.517 592.58 422.666C592.506 422.806 592.468 422.974 592.468 423.17V428H590.676V423.562C590.676 422.517 590.284 421.994 589.5 421.994C589.332 421.994 589.164 422.022 588.996 422.078C588.838 422.125 588.693 422.199 588.562 422.302C588.441 422.395 588.338 422.517 588.254 422.666C588.18 422.806 588.142 422.974 588.142 423.17V428H586.35ZM601.732 428.168C601.191 428.168 600.706 428.079 600.276 427.902C599.856 427.715 599.497 427.459 599.198 427.132C598.909 426.796 598.685 426.395 598.526 425.928C598.368 425.452 598.288 424.92 598.288 424.332C598.288 423.753 598.363 423.231 598.512 422.764C598.671 422.297 598.895 421.901 599.184 421.574C599.474 421.238 599.828 420.981 600.248 420.804C600.668 420.617 601.144 420.524 601.676 420.524C602.246 420.524 602.74 420.622 603.16 420.818C603.58 421.014 603.926 421.28 604.196 421.616C604.467 421.952 604.668 422.344 604.798 422.792C604.938 423.231 605.008 423.702 605.008 424.206V424.794H600.15V424.976C600.15 425.508 600.3 425.937 600.598 426.264C600.897 426.581 601.34 426.74 601.928 426.74C602.376 426.74 602.74 426.647 603.02 426.46C603.31 426.273 603.566 426.035 603.79 425.746L604.756 426.824C604.458 427.244 604.047 427.575 603.524 427.818C603.011 428.051 602.414 428.168 601.732 428.168ZM601.704 421.868C601.228 421.868 600.85 422.027 600.57 422.344C600.29 422.661 600.15 423.072 600.15 423.576V423.688H603.146V423.562C603.146 423.058 603.02 422.652 602.768 422.344C602.526 422.027 602.171 421.868 601.704 421.868Z" fill="#152935"/>
<rect x="536.437" y="537" width="369" height="40" fill="white"/>
<path d="M536 576H905" stroke="#5A6872"/>
<path d="M558.889 559.396C558.264 559.396 557.821 559.256 557.559 558.976C557.307 558.696 557.181 558.351 557.181 557.94V557.548C557.181 557.137 557.307 556.792 557.559 556.512C557.821 556.232 558.264 556.092 558.889 556.092C559.515 556.092 559.953 556.232 560.205 556.512C560.467 556.792 560.597 557.137 560.597 557.548V557.94C560.597 558.351 560.467 558.696 560.205 558.976C559.953 559.256 559.515 559.396 558.889 559.396ZM567.749 559.396C567.123 559.396 566.68 559.256 566.419 558.976C566.167 558.696 566.041 558.351 566.041 557.94V557.548C566.041 557.137 566.167 556.792 566.419 556.512C566.68 556.232 567.123 556.092 567.749 556.092C568.374 556.092 568.813 556.232 569.065 556.512C569.326 556.792 569.457 557.137 569.457 557.548V557.94C569.457 558.351 569.326 558.696 569.065 558.976C568.813 559.256 568.374 559.396 567.749 559.396ZM576.608 559.396C575.983 559.396 575.539 559.256 575.278 558.976C575.026 558.696 574.9 558.351 574.9 557.94V557.548C574.9 557.137 575.026 556.792 575.278 556.512C575.539 556.232 575.983 556.092 576.608 556.092C577.233 556.092 577.672 556.232 577.924 556.512C578.185 556.792 578.316 557.137 578.316 557.548V557.94C578.316 558.351 578.185 558.696 577.924 558.976C577.672 559.256 577.233 559.396 576.608 559.396ZM585.467 559.396C584.842 559.396 584.399 559.256 584.137 558.976C583.885 558.696 583.759 558.351 583.759 557.94V557.548C583.759 557.137 583.885 556.792 584.137 556.512C584.399 556.232 584.842 556.092 585.467 556.092C586.093 556.092 586.531 556.232 586.783 556.512C587.045 556.792 587.175 557.137 587.175 557.548V557.94C587.175 558.351 587.045 558.696 586.783 558.976C586.531 559.256 586.093 559.396 585.467 559.396ZM594.327 559.396C593.701 559.396 593.258 559.256 592.997 558.976C592.745 558.696 592.619 558.351 592.619 557.94V557.548C592.619 557.137 592.745 556.792 592.997 556.512C593.258 556.232 593.701 556.092 594.327 556.092C594.952 556.092 595.391 556.232 595.643 556.512C595.904 556.792 596.035 557.137 596.035 557.548V557.94C596.035 558.351 595.904 558.696 595.643 558.976C595.391 559.256 594.952 559.396 594.327 559.396ZM603.186 559.396C602.561 559.396 602.117 559.256 601.856 558.976C601.604 558.696 601.478 558.351 601.478 557.94V557.548C601.478 557.137 601.604 556.792 601.856 556.512C602.117 556.232 602.561 556.092 603.186 556.092C603.811 556.092 604.25 556.232 604.502 556.512C604.763 556.792 604.894 557.137 604.894 557.548V557.94C604.894 558.351 604.763 558.696 604.502 558.976C604.25 559.256 603.811 559.396 603.186 559.396ZM612.045 559.396C611.42 559.396 610.977 559.256 610.715 558.976C610.463 558.696 610.337 558.351 610.337 557.94V557.548C610.337 557.137 610.463 556.792 610.715 556.512C610.977 556.232 611.42 556.092 612.045 556.092C612.671 556.092 613.109 556.232 613.361 556.512C613.623 556.792 613.753 557.137 613.753 557.548V557.94C613.753 558.351 613.623 558.696 613.361 558.976C613.109 559.256 612.671 559.396 612.045 559.396ZM620.905 559.396C620.28 559.396 619.836 559.256 619.575 558.976C619.323 558.696 619.197 558.351 619.197 557.94V557.548C619.197 557.137 619.323 556.792 619.575 556.512C619.836 556.232 620.28 556.092 620.905 556.092C621.53 556.092 621.969 556.232 622.221 556.512C622.482 556.792 622.613 557.137 622.613 557.548V557.94C622.613 558.351 622.482 558.696 622.221 558.976C621.969 559.256 621.53 559.396 620.905 559.396ZM629.764 559.396C629.139 559.396 628.696 559.256 628.434 558.976C628.182 558.696 628.056 558.351 628.056 557.94V557.548C628.056 557.137 628.182 556.792 628.434 556.512C628.696 556.232 629.139 556.092 629.764 556.092C630.39 556.092 630.828 556.232 631.08 556.512C631.342 556.792 631.472 557.137 631.472 557.548V557.94C631.472 558.351 631.342 558.696 631.08 558.976C630.828 559.256 630.39 559.396 629.764 559.396Z" fill="#152935"/>
<path d="M537.148 530V520.228H541.544C541.992 520.228 542.393 520.303 542.748 520.452C543.112 520.592 543.42 520.797 543.672 521.068C543.924 521.329 544.115 521.647 544.246 522.02C544.377 522.393 544.442 522.804 544.442 523.252C544.442 523.709 544.377 524.125 544.246 524.498C544.115 524.862 543.924 525.179 543.672 525.45C543.42 525.711 543.112 525.917 542.748 526.066C542.393 526.206 541.992 526.276 541.544 526.276H538.996V530H537.148ZM538.996 524.68H541.376C541.731 524.68 542.011 524.587 542.216 524.4C542.421 524.204 542.524 523.929 542.524 523.574V522.93C542.524 522.575 542.421 522.305 542.216 522.118C542.011 521.931 541.731 521.838 541.376 521.838H538.996V524.68ZM551.189 530C550.797 530 550.485 529.888 550.251 529.664C550.027 529.431 549.887 529.123 549.831 528.74H549.747C549.626 529.216 549.379 529.575 549.005 529.818C548.632 530.051 548.17 530.168 547.619 530.168C546.873 530.168 546.299 529.972 545.897 529.58C545.496 529.188 545.295 528.665 545.295 528.012C545.295 527.256 545.566 526.696 546.107 526.332C546.649 525.959 547.419 525.772 548.417 525.772H549.663V525.24C549.663 524.829 549.556 524.512 549.341 524.288C549.127 524.064 548.781 523.952 548.305 523.952C547.885 523.952 547.545 524.045 547.283 524.232C547.031 524.409 546.817 524.624 546.639 524.876L545.575 523.924C545.846 523.504 546.205 523.168 546.653 522.916C547.101 522.655 547.694 522.524 548.431 522.524C549.421 522.524 550.172 522.748 550.685 523.196C551.199 523.644 551.455 524.288 551.455 525.128V528.572H552.183V530H551.189ZM548.221 528.866C548.623 528.866 548.963 528.777 549.243 528.6C549.523 528.423 549.663 528.161 549.663 527.816V526.85H548.515C547.582 526.85 547.115 527.149 547.115 527.746V527.984C547.115 528.283 547.209 528.507 547.395 528.656C547.591 528.796 547.867 528.866 548.221 528.866ZM556.028 530.168C555.328 530.168 554.74 530.051 554.264 529.818C553.788 529.575 553.368 529.244 553.004 528.824L554.096 527.76C554.366 528.068 554.66 528.311 554.978 528.488C555.304 528.665 555.678 528.754 556.098 528.754C556.527 528.754 556.835 528.679 557.022 528.53C557.218 528.381 557.316 528.175 557.316 527.914C557.316 527.699 557.246 527.531 557.106 527.41C556.975 527.279 556.746 527.191 556.42 527.144L555.692 527.046C554.898 526.943 554.292 526.719 553.872 526.374C553.461 526.019 553.256 525.506 553.256 524.834C553.256 524.479 553.321 524.162 553.452 523.882C553.582 523.593 553.769 523.35 554.012 523.154C554.254 522.949 554.544 522.795 554.88 522.692C555.225 522.58 555.608 522.524 556.028 522.524C556.382 522.524 556.695 522.552 556.966 522.608C557.246 522.655 557.498 522.729 557.722 522.832C557.946 522.925 558.151 523.047 558.338 523.196C558.524 523.336 558.706 523.495 558.884 523.672L557.834 524.722C557.619 524.498 557.362 524.311 557.064 524.162C556.765 524.013 556.438 523.938 556.084 523.938C555.692 523.938 555.407 524.008 555.23 524.148C555.062 524.288 554.978 524.47 554.978 524.694C554.978 524.937 555.048 525.123 555.188 525.254C555.337 525.375 555.584 525.464 555.93 525.52L556.672 525.618C558.249 525.842 559.038 526.561 559.038 527.774C559.038 528.129 558.963 528.455 558.814 528.754C558.674 529.043 558.473 529.295 558.212 529.51C557.95 529.715 557.633 529.879 557.26 530C556.896 530.112 556.485 530.168 556.028 530.168ZM562.918 530.168C562.218 530.168 561.63 530.051 561.154 529.818C560.678 529.575 560.258 529.244 559.894 528.824L560.986 527.76C561.257 528.068 561.551 528.311 561.868 528.488C562.195 528.665 562.568 528.754 562.988 528.754C563.418 528.754 563.726 528.679 563.912 528.53C564.108 528.381 564.206 528.175 564.206 527.914C564.206 527.699 564.136 527.531 563.996 527.41C563.866 527.279 563.637 527.191 563.31 527.144L562.582 527.046C561.789 526.943 561.182 526.719 560.762 526.374C560.352 526.019 560.146 525.506 560.146 524.834C560.146 524.479 560.212 524.162 560.342 523.882C560.473 523.593 560.66 523.35 560.902 523.154C561.145 522.949 561.434 522.795 561.77 522.692C562.116 522.58 562.498 522.524 562.918 522.524C563.273 522.524 563.586 522.552 563.856 522.608C564.136 522.655 564.388 522.729 564.612 522.832C564.836 522.925 565.042 523.047 565.228 523.196C565.415 523.336 565.597 523.495 565.774 523.672L564.724 524.722C564.51 524.498 564.253 524.311 563.954 524.162C563.656 524.013 563.329 523.938 562.974 523.938C562.582 523.938 562.298 524.008 562.12 524.148C561.952 524.288 561.868 524.47 561.868 524.694C561.868 524.937 561.938 525.123 562.078 525.254C562.228 525.375 562.475 525.464 562.82 525.52L563.562 525.618C565.14 525.842 565.928 526.561 565.928 527.774C565.928 528.129 565.854 528.455 565.704 528.754C565.564 529.043 565.364 529.295 565.102 529.51C564.841 529.715 564.524 529.879 564.15 530C563.786 530.112 563.376 530.168 562.918 530.168ZM566.66 522.692H568.382L569.124 525.702L569.698 528.208H569.754L570.426 525.702L571.28 522.692H572.904L573.786 525.702L574.472 528.208H574.528L575.102 525.702L575.83 522.692H577.496L575.494 530H573.562L572.624 526.78L572.078 524.792H572.036L571.504 526.78L570.58 530H568.676L566.66 522.692ZM581.62 530.168C581.097 530.168 580.626 530.079 580.206 529.902C579.795 529.725 579.44 529.468 579.142 529.132C578.852 528.796 578.628 528.395 578.47 527.928C578.311 527.452 578.232 526.92 578.232 526.332C578.232 525.744 578.311 525.217 578.47 524.75C578.628 524.283 578.852 523.887 579.142 523.56C579.44 523.224 579.795 522.967 580.206 522.79C580.626 522.613 581.097 522.524 581.62 522.524C582.142 522.524 582.614 522.613 583.034 522.79C583.454 522.967 583.808 523.224 584.098 523.56C584.396 523.887 584.625 524.283 584.784 524.75C584.942 525.217 585.022 525.744 585.022 526.332C585.022 526.92 584.942 527.452 584.784 527.928C584.625 528.395 584.396 528.796 584.098 529.132C583.808 529.468 583.454 529.725 583.034 529.902C582.614 530.079 582.142 530.168 581.62 530.168ZM581.62 528.726C582.096 528.726 582.469 528.581 582.74 528.292C583.01 528.003 583.146 527.578 583.146 527.018V525.66C583.146 525.109 583.01 524.689 582.74 524.4C582.469 524.111 582.096 523.966 581.62 523.966C581.153 523.966 580.784 524.111 580.514 524.4C580.243 524.689 580.108 525.109 580.108 525.66V527.018C580.108 527.578 580.243 528.003 580.514 528.292C580.784 528.581 581.153 528.726 581.62 528.726ZM586.61 530V522.692H588.402V524.204H588.472C588.519 524.008 588.589 523.821 588.682 523.644C588.785 523.457 588.916 523.294 589.074 523.154C589.233 523.014 589.42 522.902 589.634 522.818C589.858 522.734 590.115 522.692 590.404 522.692H590.796V524.386H590.236C589.63 524.386 589.172 524.475 588.864 524.652C588.556 524.829 588.402 525.119 588.402 525.52V530H586.61ZM596.574 528.782H596.504C596.373 529.202 596.126 529.538 595.762 529.79C595.398 530.042 594.973 530.168 594.488 530.168C593.564 530.168 592.855 529.837 592.36 529.174C591.875 528.511 591.632 527.564 591.632 526.332C591.632 525.109 591.875 524.171 592.36 523.518C592.855 522.855 593.564 522.524 594.488 522.524C594.973 522.524 595.398 522.65 595.762 522.902C596.126 523.145 596.373 523.476 596.504 523.896H596.574V519.64H598.366V530H596.574V528.782ZM595.062 528.684C595.491 528.684 595.851 528.581 596.14 528.376C596.429 528.171 596.574 527.877 596.574 527.494V525.17C596.574 524.815 596.429 524.531 596.14 524.316C595.851 524.101 595.491 523.994 595.062 523.994C594.595 523.994 594.217 524.153 593.928 524.47C593.648 524.778 593.508 525.193 593.508 525.716V526.976C593.508 527.499 593.648 527.914 593.928 528.222C594.217 528.53 594.595 528.684 595.062 528.684Z" fill="#152935"/>
</g>
</g>
<defs>
<filter id="filter0_d_3_0" x="511" y="232" width="418" height="568" filterUnits="userSpaceOnUse" color-interpolation-filters="sRGB">
<feFlood flood-opacity="0" result="BackgroundImageFix"/>
<feColorMatrix in="SourceAlpha" type="matrix" values="0 0 0 0 0 0 0 0 0 0 0 0 0 0 0 0 0 0 127 0" result="hardAlpha"/>
<feOffset dy="4"/>
<feGaussianBlur stdDeviation="2"/>
<feColorMatrix type="matrix" values="0 0 0 0 0 0 0 0 0 0 0 0 0 0 0 0 0 0 0.25 0"/>
<feBlend mode="normal" in2="BackgroundImageFix" result="effect1_dropShadow_3_0"/>
<feBlend mode="normal" in="SourceGraphic" in2="effect1_dropShadow_3_0" result="shape"/>
</filter>
<clipPath id="clip0_3_0">
<rect width="1440" height="1024" fill="white"/>
</clipPath>
</defs>
</svg>
